<svg width="697" height="675" viewBox="0 0 697 675" fill="none" xmlns="http://www.w3.org/2000/svg">
<path fill-rule="evenodd" clip-rule="evenodd" d="M309.134 53.7902C382.658 50.4019 465.479 3.77567 524.454 47.8126C583.49 91.8946 570.487 183.083 580.111 256.13C587.897 315.234 599.512 376.235 574.872 430.519C551.57 481.857 492.875 501.775 451.318 539.875C402.062 585.036 375.469 666.07 309.134 674.159C242.926 682.232 191.734 619.155 139.307 577.922C89.0652 538.407 34.3202 500.626 12.2289 440.646C-10.3302 379.395 2.25818 312.958 18.4281 249.719C35.6433 182.393 50.139 105.854 107.765 67.0151C164.946 28.4768 240.252 56.9645 309.134 53.7902Z" fill="#74EFEB" fill-opacity="0.83"/>
<path fill-rule="evenodd" clip-rule="evenodd" d="M367.409 0.637129C428.132 -4.85761 485.621 26.0072 535.092 61.6447C584.728 97.4013 621.093 146.118 646.569 201.735C674.965 263.727 713.766 333.428 688.617 396.807C663.589 459.883 587.18 482.466 524.684 508.909C474.628 530.089 421.615 528.733 367.409 532.715C307.77 537.096 247.975 555.4 192.399 533.321C126.938 507.313 64.5032 464.369 34.7141 400.539C3.17287 332.955 -9.6838 246.359 28.6045 182.356C65.9396 119.946 156.327 124.493 220.415 90.1195C272.234 62.3264 308.847 5.9364 367.409 0.637129Z" fill="#03D1CB" fill-opacity="0.66"/>
</svg>
