<svg width="685" height="726" viewBox="0 0 685 726" fill="none" xmlns="http://www.w3.org/2000/svg">
<path fill-rule="evenodd" clip-rule="evenodd" d="M346.431 7.01981C402.599 20.7722 428.656 83.9194 479.294 111.843C542.055 146.452 640.716 124.953 674.713 188.048C707.696 249.261 652.603 321.232 626.937 385.855C603.068 445.954 577.699 504.121 531.294 549.156C478.681 600.215 419.414 651.099 346.431 658.078C270.241 665.364 186.637 642.68 133.962 587.152C83.8651 534.344 105.245 449.615 82.9428 380.326C60.7384 311.339 -10.8928 254.379 4.02602 183.459C19.0869 111.865 91.0347 66.2156 156.07 32.7034C214.414 2.63891 282.679 -8.58948 346.431 7.01981Z" fill="#74EFEB" fill-opacity="0.83"/>
<path fill-rule="evenodd" clip-rule="evenodd" d="M9.37604 397.648C-6.44591 333.077 13.6184 262.096 51.9948 207.809C90.8595 152.831 151.369 109.497 218.291 102.119C280.887 95.2184 334.561 139.639 389.392 170.614C433.51 195.537 475.808 222.251 504.669 263.899C533.264 305.162 552.996 353.267 550.72 403.418C548.492 452.547 513.1 490.39 492.37 534.987C464.493 594.96 466.894 678.398 408.483 709.416C350.224 740.352 272.906 716.794 217.549 680.922C167.505 648.492 166.127 577.533 130.814 529.48C94.5458 480.128 23.9517 457.134 9.37604 397.648Z" fill="#03D1CB" fill-opacity="0.66"/>
</svg>
