<svg width="791" height="669" viewBox="0 0 791 669" fill="none" xmlns="http://www.w3.org/2000/svg">
<path fill-rule="evenodd" clip-rule="evenodd" d="M715.225 189.334C714.692 188.946 713.426 188.809 712.838 188.692C710.39 188.21 707.869 188 705.374 188C697.681 188.012 689.863 188.767 682.298 190.074C677.494 190.903 671.687 193.696 666.909 192.179C658.585 189.537 650.172 189.667 642.274 193.439C635.053 196.888 629.572 203.439 626.373 210.517C625.89 211.586 623.932 215.519 623.378 218.17C623.141 218.712 622.913 219.257 622.708 219.811C622.126 221.384 621.603 222.984 621.118 224.588C620.91 225.272 620.389 226.782 621.008 227.074C620.019 228.901 619.141 230.783 618.411 232.726C616.286 238.378 613.962 244.578 613.215 250.568C612.939 252.786 612.928 255.017 613.185 257.239C613.312 258.338 613.26 260.546 614.004 261.382C615.585 263.154 616.396 260.673 616.218 259.491C614.858 250.485 617.485 242.027 620.598 233.561C622.612 228.087 625.92 223.078 629.626 218.543C632.625 214.871 635.842 211.98 639.953 209.546C644.981 206.569 650.356 204.163 655.681 201.749C659.184 200.161 662.691 198.615 666.291 197.247C667.092 196.942 668.351 196.161 669.239 196.158C671.116 196.152 673.777 197.537 675.59 198.052C681.554 199.748 687.594 201.919 693.758 202.785C697.712 203.341 701.416 202.715 705.113 201.398C705.491 201.264 706.125 200.918 706.901 200.424C709.646 199.368 712.243 198.039 714.504 196.121C715.806 195.017 716.989 193.589 718.067 192.282C718.389 191.892 718.532 191.444 718.537 191.018C718.781 190.891 718.943 190.741 718.98 190.567C719.249 189.281 716.796 189.258 715.225 189.334" fill="#89C5CC"/>
<path fill-rule="evenodd" clip-rule="evenodd" d="M90.2734 296.541C88.7641 297.763 87.2838 299.011 85.8396 300.31C84.7389 301.3 82.7911 302.485 82.3959 303.985C81.9852 305.544 83.2819 307.003 84.3063 307.945C89.7233 312.929 95.8231 316.298 103.329 316.859C114.887 317.722 124.946 314.77 134.974 308.963C142.018 304.883 146.684 298.849 147.703 290.701C156.092 294.187 164.205 298.993 171.1 304.891C174.502 307.801 177.432 311.025 180.142 314.599C181.878 316.889 183.557 319.215 185.115 321.631C185.792 322.68 186.481 324.542 187.599 325.146C188.912 325.856 190.499 324.743 190.433 323.284C190.379 322.069 189.068 320.66 188.454 319.667C187.436 318.018 186.402 316.379 185.313 314.776C183.551 312.179 181.73 309.62 179.744 307.19C175.28 301.73 169.601 297.221 163.714 293.375C152.42 285.997 140.025 281.349 126.283 280.955C117.833 280.713 110.725 283.6 103.499 287.911C98.9999 290.595 94.3558 293.235 90.2734 296.541" fill="#DDE3E9"/>
<path fill-rule="evenodd" clip-rule="evenodd" d="M199.883 260.856C191.077 251.787 182.241 242.832 172.403 234.847C166.605 230.141 160.495 225.863 154.511 221.401C155.201 222.006 155.878 222.628 156.539 223.266C154.671 221.998 152.226 221.281 150.246 220.107C148.037 218.798 145.925 217.301 143.854 215.791C139.811 212.845 135.829 209.843 131.673 207.051C127.043 203.94 122.245 201.066 117.536 198.072C113.539 195.532 109.494 192.751 105.218 190.674C102.888 189.542 100.553 188.201 98.2129 187.02C97.4298 186.625 89.4841 181.608 89.5041 181.593C89.9433 181.262 93.9418 183.14 94.5601 183.393C96.3664 184.131 98.0938 185.013 99.8304 185.893C98.8772 184.013 98.1227 182.038 97.712 179.958C97.5851 179.317 96.5685 174.644 97.0887 174.252C97.3485 174.057 99.8835 182.416 100.013 183.22C100.119 183.872 100.103 184.812 100.317 185.431C100.662 186.429 100.645 186.127 101.405 186.69C102.798 187.721 104.647 188.365 106.154 189.227C106.968 189.68 109.485 191.48 111.001 191.993C115.588 194.221 120.238 197.649 124.597 200.495C123.453 198.345 122.582 196.097 121.948 193.741C121.797 193.182 120.167 188.165 120.563 187.867C121.008 187.532 124.112 195.195 124.296 195.92C124.637 197.268 124.708 198.768 125.136 200.079C125.605 201.518 127.07 202.028 128.39 202.867C133.247 205.953 137.938 209.232 142.55 212.662C147.583 203.711 141.78 192.903 136.89 185.393C133.364 179.98 128.619 175.34 123.608 171.289C116.92 165.882 109.269 161.563 101.627 157.612C92.7227 153.009 83.0987 150.156 73.0933 148.839C67.8603 148.149 62.5067 148.169 57.2208 148.39C54.6387 148.498 52.1602 148.84 49.6857 149.682C48.5704 150.062 47.4925 150.541 46.4421 151.077C45.644 151.484 43.7134 151.914 43.2545 152.521C39.4772 157.438 37.5448 162.337 37.8399 168.515C38.1189 174.363 39.9659 180.214 42.4725 185.431C45.264 191.24 48.8542 196.512 53.5497 200.936C57.1321 204.312 61.1372 207.25 65.1159 210.15C79.267 220.463 97.2082 229.433 115.536 227.128C121.469 226.383 127.112 224.308 132.385 221.489C133.628 220.824 134.863 220.152 136.036 219.368C136.827 218.839 138.941 216.456 139.736 216.37C140.827 216.251 143.175 218.469 144.198 219.144C151.972 224.275 159.542 229.685 166.953 235.313C174.839 241.301 182.337 247.697 189.615 254.393C192.71 257.242 195.786 260.096 198.791 263.04C199.491 263.725 201.202 266.247 202.471 266.361C203.273 266.434 203.814 265.749 203.7 265.006C203.501 263.715 200.785 261.784 199.883 260.856" fill="#C1DEE2"/>
<path fill-rule="evenodd" clip-rule="evenodd" d="M705.98 225.66C702.57 224.915 698.803 224.972 695.329 225.033C676.695 225.287 658.397 234.109 646.489 248.205C636.351 260.205 633.563 275.125 631.56 290.207C631.362 291.704 631.277 293.192 631.165 294.693C631.141 295.015 631.105 295.302 631.066 295.573C630.279 296.277 629.865 297.098 630.332 298C628.597 301.797 627.129 305.69 625.869 309.706C622.162 321.526 618.392 333.571 620.714 346C621.257 339.16 622.399 332.166 623.764 325.438C623.842 325.052 623.927 324.669 624.015 324.287C624.025 324.247 624.033 324.206 624.042 324.166C624.525 322.106 625.153 320.108 625.917 318.141C625.925 318.119 625.933 318.098 625.941 318.077C626.042 317.818 626.149 317.56 626.255 317.303C626.474 316.77 626.699 316.238 626.937 315.709C627.018 315.528 627.095 315.346 627.17 315.163C628.282 312.437 628.751 309.365 629.748 306.545C629.986 305.904 630.235 305.265 630.496 304.629C630.512 304.592 630.527 304.555 630.543 304.518C631.249 302.807 632.028 301.118 632.853 299.446C633.301 299.11 633.54 298.274 633.927 297.515C634.006 297.365 634.631 296.368 634.817 295.793C635.303 294.854 635.786 293.915 636.275 292.977C636.261 292.983 636.246 292.988 636.231 292.994C636.72 292.093 637.211 291.197 637.698 290.304C637.805 290.108 637.913 289.912 638.021 289.715C638.196 289.402 638.371 289.089 638.545 288.777C640.177 285.856 641.908 282.994 643.705 280.167C644.347 279.158 645.879 277.711 646.173 276.579C646.184 276.536 646.186 276.497 646.193 276.457C650.093 270.979 654.582 265.927 659.967 261.924C659.316 262.628 657.932 265.015 657.567 265.488C656.447 266.935 655.232 268.282 654.013 269.646C651.828 272.089 649.696 274.609 647.801 277.274C644.335 282.148 641.346 287.277 638.519 292.51C638.493 292.54 638.463 292.569 638.438 292.601C637.017 294.352 636.123 296.998 635.101 299.001C639.147 297.127 643.622 295.906 647.774 294.242C651.916 292.583 655.944 290.735 659.834 288.566C665.003 285.682 670.366 282.427 675.25 278.743C680.847 275.271 685.551 270.492 689.703 265.477C694.615 259.543 699.117 253.558 701.901 246.353C703.269 242.813 704.345 239.121 704.983 235.386C705.011 235.224 705.046 235.047 705.085 234.864C705.738 233.574 706.321 232.255 706.811 230.906C707.588 228.766 709.425 226.412 705.98 225.66" fill="#69A1AC"/>
<path fill-rule="evenodd" clip-rule="evenodd" d="M110.044 252.547C108.903 251.409 107.621 250.382 106.115 249.649C105.735 249.464 102.9 248.224 102.715 248.496C102.285 249.13 109.702 252.184 110.044 252.547M123.485 244.944C123.476 244.992 124.459 246.528 124.726 247C125.296 248.004 125.822 249.028 126.317 250.053C125.584 248.242 124.832 246.562 123.485 244.944M54.7455 257.446C53.7988 257.727 52.6606 256.62 53.8885 256.348C54.8821 256.129 54.8334 256.077 55.2795 255.34C55.6418 254.742 55.865 254.012 56.1829 253.384C56.8572 252.052 57.6221 250.782 58.561 249.591C60.5733 247.039 63.025 244.841 65.7748 242.988C70.5737 239.754 75.9544 236.799 81.6621 235.315C90.7376 232.954 101.067 232.808 110.156 234.445C115.786 235.458 120.93 237.22 124.668 241.394C126.537 243.48 128.003 245.924 128.644 248.614C128.812 249.318 128.78 250.1 128.99 250.788C129.312 251.847 129.17 251.565 130.515 251.771C131.983 251.996 133.45 252.226 134.917 252.459C138.757 253.071 142.62 253.72 146.362 254.713C147.594 255.04 148.798 255.439 149.975 255.903C150.865 256.253 154.408 257.353 154.839 258.418C155.556 260.189 153.154 259.386 152.408 259.001C151.754 258.663 151.083 258.347 150.402 258.057C148.688 257.326 146.901 256.761 145.075 256.312C143.101 255.825 141.086 255.462 139.08 255.099C137.209 254.76 135.33 254.452 133.45 254.158C132.405 253.994 131.359 253.835 130.314 253.676C129.957 253.622 129.327 253.337 129.374 253.764C127.176 253.374 124.799 253.431 122.559 253.323C119.817 253.191 117.064 253.083 114.312 253.162C112.327 253.219 110.341 253.339 108.366 253.585C107.212 253.728 106.077 253.938 104.944 254.204C104.323 254.35 101.87 254.66 101.532 255.159C101.677 254.945 104.384 255.152 104.728 255.14C106.106 255.093 107.473 254.967 108.846 254.826C111.393 254.564 113.941 254.427 116.497 254.447C116.487 254.86 114.741 255.596 114.315 255.869C113.36 256.483 112.445 257.153 111.591 257.888C110.088 259.181 108.287 260.784 107.247 262.317C107.553 261.865 109.066 261.277 109.602 260.932C110.462 260.379 111.304 259.789 112.101 259.158C112.837 258.576 113.523 257.947 114.199 257.304C114.874 256.661 115.79 255.325 116.677 254.897C116.73 254.871 117.117 255.152 117.337 255.056C117.558 254.96 117.834 254.478 117.89 254.459C118.716 254.165 120.284 254.53 121.152 254.567C123.403 254.663 125.653 254.788 127.902 254.902C128.599 254.937 129.191 254.791 129.455 255.264C129.735 255.769 129.221 257.096 129.075 257.646C128.533 259.689 127.569 261.52 126.053 263.102C123.213 266.066 119.711 268.042 115.754 269.363C100.601 274.425 84.4799 276.453 69.3311 271.187C63.0596 269.007 53.6146 265.111 54.7455 257.446" fill="#89C5CC"/>
<g opacity="0.6" clip-path="url(#clip0)">
<path fill-rule="evenodd" clip-rule="evenodd" d="M748.355 495.94C758.661 560.2 508.73 602.114 293.608 572.863C78.4857 543.612 -20.202 429.383 82.4506 368.518C185.103 307.652 738.05 431.68 748.355 495.94Z" fill="#DDE3E9"/>
</g>
<rect x="163" y="70" width="159" height="302" rx="8" fill="#F2F2F2"/>
<circle cx="242" cy="338" r="15" fill="white"/>
<circle cx="229" cy="88" r="2" fill="white"/>
<rect x="236" y="86" width="21" height="4" rx="2" fill="white"/>
<rect x="177" y="98" width="131" height="54" rx="4" fill="white"/>
<g clip-path="url(#clip1)">
<rect x="216" y="114.2" width="73" height="8.1" rx="3" fill="#DDE3E9"/>
<rect x="216" y="127.7" width="49" height="8.1" rx="3" fill="#DDE3E9"/>
</g>
<circle cx="198" cy="125" r="12" fill="#C5CFD6"/>
<rect x="177" y="160" width="131" height="42" rx="4" fill="white"/>
<g clip-path="url(#clip2)">
<rect x="216" y="172.6" width="73" height="6.3" rx="3" fill="#DDE3E9"/>
<rect x="216" y="183.1" width="49" height="6.3" rx="3" fill="#DDE3E9"/>
</g>
<circle cx="198" cy="181" r="12" fill="#C5CFD6"/>
<rect x="177" y="210" width="131" height="42" rx="4" fill="white"/>
<g clip-path="url(#clip3)">
<rect x="216" y="222.6" width="73" height="6.3" rx="3" fill="#DDE3E9"/>
<rect x="216" y="233.1" width="49" height="6.3" rx="3" fill="#DDE3E9"/>
</g>
<circle cx="198" cy="231" r="12" fill="#AFB9C5"/>
<rect x="177" y="260" width="131" height="42" rx="4" fill="white"/>
<g clip-path="url(#clip4)">
<rect x="216" y="272.6" width="73" height="6.3" rx="3" fill="#DDE3E9"/>
<rect x="216" y="283.1" width="49" height="6.3" rx="3" fill="#DDE3E9"/>
</g>
<circle cx="198" cy="281" r="12" fill="#C5CFD6"/>
<rect x="295" y="121" width="335" height="346" rx="8" fill="#F2F2F2"/>
<rect x="544" y="164" width="70" height="81" rx="8" fill="white"/>
<circle cx="579" cy="195" r="16" fill="#DDE3E9"/>
<rect x="554" y="215" width="50" height="6" rx="3" fill="#DDE3E9"/>
<rect x="562" y="225" width="34" height="6" rx="3" fill="#DDE3E9"/>
<path d="M295 129C295 124.582 298.582 121 303 121H622C626.418 121 630 124.582 630 129V148H295V129Z" fill="#C5CFD6"/>
<circle cx="308" cy="135" r="4" fill="#F2F2F2"/>
<circle cx="320" cy="135" r="4" fill="#F2F2F2"/>
<circle cx="332" cy="135" r="4" fill="#F2F2F2"/>
<rect x="544" y="253" width="70" height="194" rx="8" fill="white"/>
<rect x="562" y="271" width="34" height="26" rx="4" fill="#DDE3E9"/>
<rect x="562" y="305" width="34" height="25" rx="4" fill="#AFB9C5"/>
<rect x="562" y="338" width="34" height="25" rx="4" fill="#DDE3E9"/>
<rect x="562" y="404" width="34" height="25" rx="4" fill="#DDE3E9"/>
<rect x="562" y="371" width="34" height="25" rx="4" fill="#C5CFD6"/>
<rect x="311" y="165" width="225" height="47" rx="4" fill="white"/>
<g clip-path="url(#clip5)">
<rect x="320" y="179.1" width="167" height="7.05" rx="3" fill="#DDE3E9"/>
<rect x="320" y="190.85" width="112.096" height="7.05" rx="3" fill="#DDE3E9"/>
</g>
<circle cx="511.954" cy="188.5" r="7" fill="#DDE3E9"/>
<circle cx="511.954" cy="188.5" r="3" fill="#F2F2F2"/>
<rect x="311" y="220" width="225" height="39" rx="4" fill="white"/>
<g clip-path="url(#clip6)">
<rect x="320" y="231.7" width="167" height="5.85" rx="2.925" fill="#DDE3E9"/>
<rect x="320" y="241.45" width="112.096" height="5.85" rx="2.925" fill="#DDE3E9"/>
</g>
<circle cx="511.954" cy="239.5" r="7" fill="#DDE3E9"/>
<circle cx="511.954" cy="239.5" r="3" fill="#F2F2F2"/>
<rect x="311" y="267" width="225" height="39" rx="4" fill="white"/>
<g clip-path="url(#clip7)">
<rect x="320" y="278.7" width="167" height="5.85" rx="2.925" fill="#DDE3E9"/>
<rect x="320" y="288.45" width="112.096" height="5.85" rx="2.925" fill="#DDE3E9"/>
</g>
<circle cx="511.954" cy="286.5" r="7" fill="#DDE3E9"/>
<circle cx="511.954" cy="286.5" r="3" fill="#AFB9C5"/>
<rect x="311" y="408" width="225" height="39" rx="4" fill="white"/>
<g clip-path="url(#clip8)">
<rect x="320" y="419.7" width="167" height="5.85" rx="2.925" fill="#DDE3E9"/>
<rect x="320" y="429.45" width="112.096" height="5.85" rx="2.925" fill="#DDE3E9"/>
</g>
<circle cx="511.954" cy="427.5" r="7" fill="#DDE3E9"/>
<circle cx="511.954" cy="427.5" r="3" fill="#F2F2F2"/>
<rect x="311" y="361" width="225" height="39" rx="4" fill="white"/>
<g clip-path="url(#clip9)">
<rect x="320" y="372.7" width="167" height="5.85" rx="2.925" fill="#DDE3E9"/>
<rect x="320" y="382.45" width="112.096" height="5.85" rx="2.925" fill="#DDE3E9"/>
</g>
<circle cx="511.954" cy="380.5" r="7" fill="#DDE3E9"/>
<circle cx="511.954" cy="380.5" r="3" fill="#F2F2F2"/>
<rect x="311" y="314" width="225" height="39" rx="4" fill="white"/>
<g clip-path="url(#clip10)">
<rect x="320" y="325.7" width="167" height="5.85" rx="2.925" fill="#DDE3E9"/>
<rect x="320" y="335.45" width="112.096" height="5.85" rx="2.925" fill="#DDE3E9"/>
</g>
<circle cx="511.954" cy="333.5" r="7" fill="#DDE3E9"/>
<circle cx="511.954" cy="333.5" r="3" fill="#F2F2F2"/>
<path fill-rule="evenodd" clip-rule="evenodd" d="M712.986 291.376C709.041 288.701 703.796 288 699.076 288C680.64 288 663.311 294.84 648.341 305.032C640.138 310.616 632.8 317.728 626.322 325.132C622.582 329.407 619.248 334.03 616.887 339.173C615.294 342.644 614.201 346.261 613.46 349.991C612.557 354.537 611.839 359.175 611.515 363.797C611.387 365.617 610.33 375.274 613.356 375.438C613.338 375.676 613.334 375.903 613.353 376.106C606.782 386.38 602.723 398.42 598.958 409.835C595.683 419.769 592.764 429.786 590.87 440.063C588.375 453.592 586.737 467.326 585.958 481.05C585.791 483.999 585.676 486.95 585.577 489.903C585.493 492.422 585.408 494.941 585.325 497.461C585.233 500.284 584.736 503.534 585.185 506.34C585.576 508.784 587.691 508.414 587.785 505.982C587.898 503.045 587.879 500.102 588.008 497.163C588.179 493.262 588.355 489.361 588.546 485.461C589.875 458.369 594.86 431.675 604.061 406.084C607.785 395.728 612.051 385.925 617.535 376.345C622.356 367.922 628.156 359.767 634.084 352.173C639.845 344.792 645.836 337.583 652.895 331.33C658.624 326.256 664.926 321.835 671.404 317.722C679.631 312.498 687.843 307.401 696.755 303.391C701.388 301.307 706.108 299.441 710.777 297.44C711.617 297.081 712.517 296.732 713.325 296.315C716.02 294.925 715.133 292.832 712.986 291.376" fill="#C1DEE2"/>
<path fill-rule="evenodd" clip-rule="evenodd" d="M638.818 386C646.295 386 652.949 386.972 659.838 389.943C665.785 392.508 671.205 395.903 676.467 399.599C683.868 404.798 689.698 410.848 693.779 418.865C696.217 423.654 698.006 430.431 696.368 435.655C694.44 441.807 689.144 446.939 682.169 445.855C677.856 445.185 673.903 442.33 670.625 439.643C666.703 436.428 663.564 432.563 660.972 428.27C656.744 421.267 654.26 413.351 650.668 406.033C648.964 402.56 647.317 399.063 645.275 395.762C644.265 394.128 643.189 392.509 641.656 391.294C640.836 390.644 637.378 389.52 638.7 388.061C619.31 388.315 602.132 403.207 598.409 421.641C598.063 423.359 597.792 425.091 597.505 426.82C597.325 427.911 597.398 431.937 596.422 432.634C594.27 434.172 595.174 429.499 595.267 428.826C595.506 427.087 595.76 425.35 596.027 423.615C597.481 414.181 601.681 405.411 608.685 398.683C616.694 390.99 627.501 386 638.818 386" fill="#89C5CC"/>
<path fill-rule="evenodd" clip-rule="evenodd" d="M74.9379 357.736C93.6043 389.052 115.345 419.374 128.401 453.613C127.875 449.577 127.317 445.545 126.692 441.52C123.38 420.179 119.262 398.994 114.936 377.835C112.733 367.062 110.402 356.327 108.012 345.594C106.727 339.829 105.457 334.061 104.145 328.302C103.827 326.906 103.554 324.469 103.157 322C115.845 363.637 128.081 405.305 137.031 447.942C138.205 453.538 139.205 459.124 140.024 464.7C140.304 463.428 140.58 462.156 140.881 460.887C144.503 445.68 149.935 430.594 156.403 416.374C159.495 409.575 163.046 402.924 167.228 396.726C169.836 392.863 175.986 388.271 178.364 384.314C165.355 408.176 160.657 438.032 153.145 463.973C151.312 470.304 149.467 476.624 147.659 482.955C158.987 460.237 176.563 441.571 201 433.483C171.42 453.027 153.678 487.254 141.722 522.26C141.683 522.675 141.636 523.09 141.595 523.506C145.114 516.829 149.545 510.789 155.551 506.56C168.407 497.504 182.667 500.142 195.137 507.91C185.35 501.689 167.663 507.354 159.428 513.677C153.533 518.203 148.495 524.275 144.12 530.2C143.072 531.62 141.641 533.277 140.13 535.044C138.012 548.795 134.56 562.452 129.672 576C130.479 572.111 129.896 565.892 130.12 562.993C130.144 562.679 130.164 562.365 130.188 562.053C129.445 565.019 128.727 567.951 128.036 570.837C129.41 565.331 130.156 559.583 130.739 553.776C130.889 551.281 131.036 548.785 131.19 546.29C131.141 541.553 130.946 536.799 130.616 532.036C129.447 527.408 128.137 523.042 127.056 519.411C123.159 506.31 117.444 493.76 110.411 482.051C103.994 471.366 96.3124 461.688 87.4448 452.935C82.6643 448.217 77.6614 443.725 72.7289 439.17C70.9453 437.523 67.7572 433.474 65 431.363C85.0805 442.434 105.749 454.41 120.398 472.248C118.68 465.653 116.815 459.151 114.842 452.78C104.831 420.454 92.1913 386.953 74.9379 357.736Z" fill="#DDE3E9"/>
<ellipse cx="136" cy="567.5" rx="41" ry="32.5" fill="#C5CFD6"/>
<path fill-rule="evenodd" clip-rule="evenodd" d="M149.007 102.986C149.003 102.996 148.999 103.006 148.993 103.018C148.999 103.008 149.007 102.968 149.007 102.986" fill="#C5CFD6"/>
<path fill-rule="evenodd" clip-rule="evenodd" d="M148.998 103.001C148.998 103.003 148.996 103.007 148.996 103.011C148.996 103.001 149.014 102.971 148.998 103.001" fill="#C5CFD6"/>
<path fill-rule="evenodd" clip-rule="evenodd" d="M149.067 102.832C149.053 102.872 149.035 102.91 149.019 102.95C149.027 102.93 149.035 102.914 149.043 102.894C148.835 103.414 148.967 103.076 149.067 102.832" fill="#C5CFD6"/>
<path fill-rule="evenodd" clip-rule="evenodd" d="M149.022 102.953C149.014 102.971 149.006 102.991 148.998 103.009C148.94 103.121 149.022 102.953 149.022 102.953" fill="#C5CFD6"/>
<path fill-rule="evenodd" clip-rule="evenodd" d="M148.999 103.002C148.999 103 148.999 103 149.001 102.998C148.999 103 148.999 103 148.999 103.002" fill="#C5CFD6"/>
<path fill-rule="evenodd" clip-rule="evenodd" d="M148.99 103.016C148.978 103.04 149.046 102.924 148.99 103.016Z" fill="#C5CFD6"/>
<path fill-rule="evenodd" clip-rule="evenodd" d="M148.998 103.002L149.002 102.998C149 103 149 103.002 148.998 103.002" fill="#C5CFD6"/>
<rect x="101" y="51" width="95" height="63" rx="4" fill="#DDE3E9"/>
<path fill-rule="evenodd" clip-rule="evenodd" d="M137 69L109 114H165L137 69Z" fill="#AFB9C5"/>
<path fill-rule="evenodd" clip-rule="evenodd" d="M164.5 81L140 114H189L164.5 81Z" fill="#C5CFD6"/>
<circle cx="175" cy="72" r="9" fill="white"/>
<path fill-rule="evenodd" clip-rule="evenodd" d="M625.993 529.986C625.997 529.996 626.001 530.006 626.007 530.018C626.001 530.008 625.993 529.968 625.993 529.986" fill="#C5CFD6"/>
<path fill-rule="evenodd" clip-rule="evenodd" d="M626.002 530.001C626.002 530.003 626.004 530.007 626.004 530.011C626.004 530.001 625.986 529.971 626.002 530.001" fill="#C5CFD6"/>
<path fill-rule="evenodd" clip-rule="evenodd" d="M625.933 529.832C625.947 529.872 625.965 529.91 625.981 529.95C625.973 529.93 625.965 529.914 625.957 529.894C626.165 530.414 626.033 530.076 625.933 529.832" fill="#C5CFD6"/>
<path fill-rule="evenodd" clip-rule="evenodd" d="M625.978 529.953C625.986 529.971 625.994 529.991 626.002 530.009C626.06 530.121 625.978 529.953 625.978 529.953" fill="#C5CFD6"/>
<path fill-rule="evenodd" clip-rule="evenodd" d="M626.001 530.002C626.001 530 626.001 530 625.999 529.998C626.001 530 626.001 530 626.001 530.002" fill="#C5CFD6"/>
<path fill-rule="evenodd" clip-rule="evenodd" d="M626.01 530.016C626.022 530.04 625.954 529.924 626.01 530.016Z" fill="#C5CFD6"/>
<path fill-rule="evenodd" clip-rule="evenodd" d="M626.002 530.002L625.998 529.998C626 530 626 530.002 626.002 530.002" fill="#C5CFD6"/>
<rect width="142" height="94" rx="4" transform="matrix(-1 0 0 1 697 453)" fill="#DDE3E9"/>
<path fill-rule="evenodd" clip-rule="evenodd" d="M644.274 480L685.329 547H603.219L644.274 480Z" fill="#AFB9C5"/>
<path fill-rule="evenodd" clip-rule="evenodd" d="M601.944 497.946L638.239 547H565.649L601.944 497.946Z" fill="#C5CFD6"/>
<circle r="13.5" transform="matrix(-1 0 0 1 586.5 484.5)" fill="white"/>
<path fill-rule="evenodd" clip-rule="evenodd" d="M246.568 354.094C252.038 357.39 257.412 358.983 259.934 358.333C266.26 356.702 266.841 333.562 261.947 324.439C257.053 315.317 231.892 311.341 230.624 329.415C230.183 335.689 232.817 341.287 236.709 345.855L229.731 378.381H250.001L246.568 354.094Z" fill="#B28B67"/>
<path fill-rule="evenodd" clip-rule="evenodd" d="M253.94 314.504C251.17 313.659 247.149 313.373 245.458 313.566C246.42 311.261 246.802 308.693 246.491 306.192C246.188 303.762 245.102 301.693 244.098 299.525C243.635 298.526 243.111 297.532 242.329 296.767C241.532 295.989 240.523 295.475 239.466 295.229C238.384 294.978 237.252 294.999 236.168 295.227C235.689 295.328 235.258 295.547 234.788 295.669C234.307 295.794 234.073 295.492 233.723 295.189C232.881 294.46 231.646 294.099 230.581 293.97C229.385 293.826 228.144 294.006 227.004 294.399C225.894 294.782 224.828 295.403 224.025 296.308C223.668 296.711 223.344 297.17 223.133 297.676C223.047 297.884 223.032 298.007 222.825 298.083C222.633 298.154 222.409 298.156 222.211 298.223C220.297 298.871 218.661 300.35 217.77 302.248C217.25 303.356 217.004 305.306 217.071 307.492C217.139 309.677 219.113 315.38 220.958 317.461C222.606 319.317 225.028 320.543 227.365 321.079C225.814 322.852 224.781 325.068 224.017 327.322C223.188 329.77 222.675 332.313 222.485 334.905C222.305 337.367 222.288 339.971 222.866 342.381C223.406 344.635 224.56 346.483 226.488 347.656C227.371 348.193 228.321 348.597 229.277 348.966C230.219 349.329 231.164 349.683 232.15 349.887C234.017 350.273 236.169 350.206 237.607 348.72C238.125 348.185 238.695 347.511 239.073 346.857C239.209 346.621 239.291 346.468 239.126 346.237C238.928 345.962 238.608 345.751 238.354 345.535C236.904 344.306 236.007 342.666 235.78 340.716C235.551 338.737 236.082 336.184 238.006 335.321C240.38 334.255 242.995 335.478 245.105 336.618C246.002 333.453 247.843 330.603 250.73 329.151C253.925 327.545 257.59 327.357 260.872 325.979C261.728 325.619 262.599 325.212 263.229 324.48C263.492 324.174 263.8 323.777 263.906 323.373C264.044 322.842 263.701 322.396 263.436 321.982C262.033 319.785 256.71 315.348 253.94 314.504Z" fill="#191847"/>
<path fill-rule="evenodd" clip-rule="evenodd" d="M223.819 445.949L254.757 552.56L269.309 632.605H283.915L269.335 445.949H223.819Z" fill="#B28B67"/>
<path fill-rule="evenodd" clip-rule="evenodd" d="M223.819 445.949L254.757 552.56L269.309 632.605H283.915L269.335 445.949H223.819Z" fill="black" fill-opacity="0.1"/>
<path fill-rule="evenodd" clip-rule="evenodd" d="M209.915 445.949C212.074 501.333 211.222 531.541 210.739 536.573C210.256 541.604 207.513 575.305 188.822 634.294H204.013C228.766 577.704 237.408 544.004 240.247 536.573C243.086 529.141 251.471 498.934 263.712 445.949H209.915Z" fill="#B28B67"/>
<path fill-rule="evenodd" clip-rule="evenodd" d="M223.155 445.949C231.202 482.634 245.121 541.193 264.911 621.625H286.274C287.852 539.069 281.139 484.733 269.516 445.949H223.155Z" fill="#69A1AC"/>
<path fill-rule="evenodd" clip-rule="evenodd" d="M209.807 445.949C211.921 501.333 206.442 555.896 189.469 622.488H212.262C237.061 566.742 254.835 512.447 266.983 445.949H209.807Z" fill="#89C5CC"/>
<path fill-rule="evenodd" clip-rule="evenodd" d="M186.657 645.274L187.417 633.01C187.457 632.37 188.081 631.932 188.71 632.057C196.013 633.513 205.935 630.072 205.935 630.072C215.884 637.118 230.133 640.432 235.567 641.496C236.748 641.727 237.497 642.918 237.169 644.076L236.111 647.808H205.935H188.333L186.657 645.274Z" fill="#191847"/>
<path fill-rule="evenodd" clip-rule="evenodd" d="M266.049 645.274L266.81 633.01C266.849 632.37 267.473 631.932 268.102 632.057C275.406 633.513 285.328 630.072 285.328 630.072C295.276 637.118 309.526 640.432 314.959 641.496C316.14 641.727 316.889 642.918 316.561 644.076L315.503 647.808H285.328H267.725L266.049 645.274Z" fill="#191847"/>
<path fill-rule="evenodd" clip-rule="evenodd" d="M295.904 379.808L266.588 395.864L277.414 407.484L298.715 387.98C309.937 384.887 315.069 382.625 314.111 381.193C313.303 379.985 312 380.027 310.8 380.066C309.865 380.096 308.993 380.124 308.465 379.558C307.26 378.265 309.559 373.744 311.923 369.547C314.288 365.351 311.759 365.716 310.314 366.32C305.582 369.523 300.779 374.019 295.904 379.808ZM325.379 402.337L312.502 409.411L313.235 422.334C313.235 422.334 321.575 416.314 328.751 414.314C337.9 411.763 341.601 409.815 346.072 404.118C348.464 401.07 350.494 394.943 348.217 392.948C347.344 392.183 344.09 393.991 340.769 395.836C338.239 397.242 335.67 398.67 334.087 398.996C331.956 399.434 332.206 396.673 332.405 394.466C332.548 392.882 332.665 391.584 331.859 391.96C328.089 392.024 325.379 402.337 325.379 402.337Z" fill="#997659"/>
<path fill-rule="evenodd" clip-rule="evenodd" d="M252.311 392.287C262.579 392.179 276.272 390.01 290.882 380.736L296.62 393.532C286.542 403.533 272.372 411.751 259.982 411.403C250.217 411.128 245.227 399.318 252.311 392.287Z" fill="#07BEB8"/>
<path fill-rule="evenodd" clip-rule="evenodd" d="M224.617 479.951C214.855 478.678 205.885 477.509 200.57 478.555C194.606 459.186 199.558 446.991 204.13 435.733C206.885 428.948 209.502 422.503 209.508 415.033C209.524 393.281 226.99 359.799 229.56 359.799H230.298H250.663H252.995C254.043 373.26 258.514 387.834 263.015 402.502C264.066 405.928 265.118 409.358 266.129 412.781C283.161 416.647 320.979 403.189 320.979 403.189C320.979 403.189 330.526 422.941 329.805 431.352C307.793 442.85 288.926 447.976 273.383 448.315C273.877 457.538 272.754 466.314 268.983 474.332C263.93 485.077 242.887 482.333 224.617 479.951Z" fill="#07BEB8"/>
<path fill-rule="evenodd" clip-rule="evenodd" d="M464.38 314.74C458.227 318.449 452.182 320.241 449.344 319.509C442.228 317.675 441.573 291.642 447.079 281.379C452.585 271.116 480.891 266.643 482.318 286.977C482.813 294.034 479.85 300.333 475.472 305.472L483.322 342.063H460.518L464.38 314.74Z" fill="#B28B67"/>
<path fill-rule="evenodd" clip-rule="evenodd" d="M463.24 289.223C461.268 286.286 459.374 284.045 456.911 282.744C446.885 282.903 445.711 281.106 445.711 275.048C447.331 273.889 453.044 271.938 459.443 271.389C462.707 270.455 466.573 270.631 470.298 272.189C474.896 273.494 478.79 276.303 480.509 281.564C486.732 292.301 482.009 303.479 475.645 307.297C473.951 305.29 472.472 303.345 471.153 301.483C472.213 300.448 472.87 299.003 472.87 297.405C472.87 294.256 470.318 291.704 467.169 291.704C466.938 291.704 466.71 291.717 466.485 291.744C466.344 295.681 465.761 308.999 464.229 313.626C462.424 319.08 451.887 320.419 448.212 320.419C445.038 320.419 445.146 317.413 445.224 315.259C445.235 314.949 445.246 314.656 445.246 314.393C445.246 313.843 445.961 313.844 446.77 313.846C447.82 313.848 449.027 313.85 449.027 312.646C449.027 311.332 447.212 310.325 445.588 309.424C444.575 308.861 443.636 308.34 443.258 307.811C442.067 306.144 441.666 303.895 443.463 303.895C444.445 303.895 445.793 304.462 447.414 305.143C449.862 306.171 452.933 307.462 456.313 307.462C461.896 307.462 463.224 289.448 463.24 289.223Z" fill="#191847"/>
<path fill-rule="evenodd" clip-rule="evenodd" d="M498.495 422.3L462.792 539.249L445.496 638.706H431.936L450.211 422.3H498.495Z" fill="#B28B67"/>
<path fill-rule="evenodd" clip-rule="evenodd" d="M498.495 422.3L462.792 539.249L445.496 638.706H431.936L450.211 422.3H498.495Z" fill="black" fill-opacity="0.1"/>
<path fill-rule="evenodd" clip-rule="evenodd" d="M511.267 422.3C508.842 486.511 511.696 519.632 512.239 525.466C512.782 531.3 520.214 569.127 537.808 640.665L523.358 635.692C495.552 570.082 486.076 535.983 482.887 527.367C479.698 518.752 471.228 483.729 457.476 422.3H511.267Z" fill="#B28B67"/>
<path fill-rule="evenodd" clip-rule="evenodd" d="M534.964 634.604C536.038 634.134 537.314 634.61 537.711 635.713C538.398 637.62 539.292 640.409 539.292 641.993C539.292 644.564 538.436 649.497 538.436 649.497C535.459 649.497 484.924 649.497 484.924 649.497C484.924 649.497 482.838 642.588 487.332 642.037C491.827 641.486 494.799 641.042 494.799 641.042L519.622 629.954C520.137 629.724 520.74 629.965 520.954 630.487L522.533 634.324C522.533 634.324 526.694 636.269 529.295 636.269C530.846 636.269 533.265 635.348 534.964 634.604Z" fill="#E4E4E4"/>
<path fill-rule="evenodd" clip-rule="evenodd" d="M445.78 634.604C446.854 634.134 448.13 634.61 448.527 635.713C449.213 637.62 450.107 640.409 450.107 641.993C450.107 644.564 449.252 649.497 449.252 649.497C446.275 649.497 395.74 649.497 395.74 649.497C395.74 649.497 393.654 642.588 398.148 642.037C402.642 641.486 405.615 641.042 405.615 641.042L430.438 629.954C430.953 629.724 431.556 629.965 431.77 630.487L433.349 634.324C433.349 634.324 437.509 636.269 440.111 636.269C441.662 636.269 444.08 635.348 445.78 634.604Z" fill="#E4E4E4"/>
<path fill-rule="evenodd" clip-rule="evenodd" d="M503.238 422.3L488.058 481.884H441.691L448.605 422.3H503.238Z" fill="#69A1AC"/>
<path fill-rule="evenodd" clip-rule="evenodd" d="M511.777 422.3C519.27 444.802 514.624 481.884 514.624 481.884H467.308L454.298 422.3H511.777Z" fill="#89C5CC"/>
<path fill-rule="evenodd" clip-rule="evenodd" d="M390.627 444.8L413.633 415.098L424.635 429.144L399.211 449.352C393.797 461.257 390.379 466.553 388.956 465.239C387.757 464.131 388.033 462.693 388.288 461.369C388.486 460.337 388.671 459.374 388.135 458.69C386.911 457.127 381.483 458.883 376.403 460.77C371.324 462.656 372.175 459.916 373.101 458.418C377.493 453.732 383.335 449.192 390.627 444.8ZM553.038 460.431C549.496 455.235 532.457 402.131 532.457 402.131L512.805 404.972C512.805 404.972 539.264 461.097 541.22 464.484C543.761 468.883 541.511 476.111 539.985 481.011C539.749 481.77 539.53 482.472 539.349 483.1C542.552 484.022 543.771 482.192 545.056 480.262C546.507 478.082 548.043 475.776 552.617 477.167C554.384 477.704 556.082 478.394 557.74 479.068C563.47 481.398 568.733 483.537 574.78 478.529C575.739 477.736 576.547 475.14 573.501 473.628C565.912 469.863 554.769 462.971 553.038 460.431Z" fill="#B28B67"/>
<path fill-rule="evenodd" clip-rule="evenodd" d="M465.003 327.623L456.671 327.374C447.572 364.273 427.576 399.45 396.683 432.903L427.554 461.183C456.743 415.631 472.362 370.67 465.003 327.623Z" fill="#191847"/>
<path fill-rule="evenodd" clip-rule="evenodd" d="M514.816 424.705L442.364 434.887C442.364 434.887 458.954 370.239 452.951 327.525L474.349 321.203C495.4 346.364 505.022 379.632 514.816 424.705Z" fill="#DDE3E9"/>
<path fill-rule="evenodd" clip-rule="evenodd" d="M552.104 451.072C531.64 362.953 474.829 321.135 474.829 321.135L474.814 321.153C474.81 321.149 474.807 321.144 474.803 321.139L473.376 321.34C470.828 321.787 465.621 322.753 465.621 322.753L462.457 338.56C465.491 366.229 468.277 450.982 468.277 450.982L515.701 444.317C516.158 448.157 516.525 452.064 516.791 456.035L552.104 451.072Z" fill="#2F3676"/>
<path fill-rule="evenodd" clip-rule="evenodd" d="M515.745 444.688C513.78 427.964 510.099 412.518 505.636 398.7C506.706 415.691 506.847 436.297 502.533 446.545L515.745 444.688Z" fill="black" fill-opacity="0.1"/>
<path fill-rule="evenodd" clip-rule="evenodd" d="M501.159 417.046L476.213 409.47L477.74 420.338L501.159 417.046Z" fill="white" fill-opacity="0.2"/>
<defs>
<clipPath id="clip0">
<rect width="707.218" height="230.188" fill="white" transform="translate(41.6638 352.168)"/>
</clipPath>
<clipPath id="clip1">
<rect width="73" height="21.6" fill="white" transform="translate(216 114.2)"/>
</clipPath>
<clipPath id="clip2">
<rect width="73" height="16.8" fill="white" transform="translate(216 172.6)"/>
</clipPath>
<clipPath id="clip3">
<rect width="73" height="16.8" fill="white" transform="translate(216 222.6)"/>
</clipPath>
<clipPath id="clip4">
<rect width="73" height="16.8" fill="white" transform="translate(216 272.6)"/>
</clipPath>
<clipPath id="clip5">
<rect width="167" height="18.8" fill="white" transform="translate(320 179.1)"/>
</clipPath>
<clipPath id="clip6">
<rect width="167" height="15.6" fill="white" transform="translate(320 231.7)"/>
</clipPath>
<clipPath id="clip7">
<rect width="167" height="15.6" fill="white" transform="translate(320 278.7)"/>
</clipPath>
<clipPath id="clip8">
<rect width="167" height="15.6" fill="white" transform="translate(320 419.7)"/>
</clipPath>
<clipPath id="clip9">
<rect width="167" height="15.6" fill="white" transform="translate(320 372.7)"/>
</clipPath>
<clipPath id="clip10">
<rect width="167" height="15.6" fill="white" transform="translate(320 325.7)"/>
</clipPath>
</defs>
</svg>
