<svg width="215" height="107" viewBox="0 0 215 107" fill="none" xmlns="http://www.w3.org/2000/svg">
<path d="M138 95.7402L148.702 92.5064L146.47 78.932" stroke="#193948" stroke-width="2"/>
<path d="M1 81.1563C38.5 119.002 191.5 24.8501 112.5 9.8504C44.2404 -3.11005 132.5 128.351 214.5 98.0002" stroke="#193948" stroke-width="2" stroke-dasharray="7 7"/>
<path d="M71.214 5.19158L77.6154 0.0717014C72.6424 -0.476949 70.5991 2.23519 69.7629 4.38187C65.8778 2.76864 61.6484 4.88286 61.6484 4.88286L74.4564 9.53261C73.8103 7.80677 72.6855 6.30091 71.214 5.19158V5.19158Z" fill="#3F3D56"/>
<path d="M168.566 57.3449L174.967 52.225C169.994 51.6764 167.951 54.3885 167.114 56.5352C163.229 54.922 159 57.0362 159 57.0362L171.808 61.6859C171.162 59.9601 170.037 58.4542 168.566 57.3449V57.3449Z" fill="#3F3D56"/>
<path d="M63.5656 101.79L69.9669 96.6703C64.994 96.1217 62.9507 98.8338 62.1144 100.981C58.2294 99.3673 54 101.482 54 101.482L66.808 106.131C66.1618 104.405 65.0371 102.9 63.5656 101.79Z" fill="#3F3D56"/>
</svg>
