<svg width="215" height="98" viewBox="0 0 215 98" fill="none" xmlns="http://www.w3.org/2000/svg">
<path d="M1 24.4072C38.5 -13.4382 191.5 80.7133 112.5 95.7131C44.2404 108.674 132.5 -22.7871 214.5 7.56324" stroke="#193948" stroke-width="2" stroke-dasharray="7 7"/>
<path d="M158.582 18.6553L160.395 7.62295L147.226 3.64563" stroke="#193948" stroke-width="2"/>
<path d="M162.566 31.1916L168.967 26.0717C163.994 25.5231 161.951 28.2352 161.114 30.3819C157.229 28.7687 153 30.8829 153 30.8829L165.808 35.5326C165.162 33.8068 164.037 32.3009 162.566 31.1916V31.1916Z" fill="#3F3D56"/>
<path d="M57.5656 75.6379L63.9669 70.518C58.994 69.9693 56.9507 72.6815 56.1144 74.8282C52.2294 73.2149 48 75.3292 48 75.3292L60.808 79.9789C60.1618 78.2531 59.0371 76.7472 57.5656 75.6379Z" fill="#3F3D56"/>
</svg>
