<svg width="152" height="235" viewBox="0 0 152 235" fill="none" xmlns="http://www.w3.org/2000/svg">
<path d="M1 17.0054C1 17.0054 55.5195 15.624 83.7646 56.9783C122.951 114.352 68.8071 234 68.8071 234" stroke="#193948" stroke-width="2" stroke-dasharray="7 7"/>
<path d="M90.0098 104.508L97.4344 112.867L108.82 105.146" stroke="#193948" stroke-width="2"/>
<path d="M48.214 5.19158L54.6154 0.0717014C49.6424 -0.476949 47.5991 2.23519 46.7629 4.38187C42.8778 2.76864 38.6484 4.88286 38.6484 4.88286L51.4564 9.53261C50.8103 7.80677 49.6855 6.30091 48.214 5.19158Z" fill="#3F3D56"/>
<path d="M145.566 57.3449L151.967 52.225C146.994 51.6764 144.951 54.3885 144.114 56.5352C140.229 54.922 136 57.0362 136 57.0362L148.808 61.6859C148.162 59.9601 147.037 58.4542 145.566 57.3449Z" fill="#3F3D56"/>
<path d="M40.5656 101.79L46.9669 96.6703C41.994 96.1217 39.9507 98.8338 39.1144 100.981C35.2294 99.3673 31 101.482 31 101.482L43.808 106.131C43.1618 104.405 42.0371 102.9 40.5656 101.79Z" fill="#3F3D56"/>
</svg>
