<svg width="182" height="156" viewBox="0 0 182 156" fill="none" xmlns="http://www.w3.org/2000/svg">
<path opacity="0.3" d="M72.0879 65.8897C86.5412 65.8897 98.2578 54.173 98.2578 39.7197C98.2578 25.2665 86.5412 13.5498 72.0879 13.5498C57.6346 13.5498 45.918 25.2665 45.918 39.7197C45.918 54.173 57.6346 65.8897 72.0879 65.8897Z" fill="#31708E"/>
<path opacity="0.3" d="M21.4113 127.984C29.9519 127.984 36.8754 121.06 36.8754 112.52C36.8754 103.979 29.9519 97.0557 21.4113 97.0557C12.8708 97.0557 5.94727 103.979 5.94727 112.52C5.94727 121.06 12.8708 127.984 21.4113 127.984Z" fill="#31708E"/>
<path opacity="0.3" d="M120.618 144.162C138.094 144.162 152.26 129.995 152.26 112.52C152.26 95.0445 138.094 80.8779 120.618 80.8779C103.143 80.8779 88.9766 95.0445 88.9766 112.52C88.9766 129.995 103.143 144.162 120.618 144.162Z" fill="#31708E"/>
<path d="M165.557 57.458C165.313 56.5515 165.048 55.636 164.77 54.7371L165.225 54.5965C165.505 55.501 165.771 56.4222 166.017 57.3344L165.557 57.458ZM16.7364 57.2501L16.2773 57.1251C16.5264 56.2102 16.7964 55.2864 17.0798 54.3795L17.534 54.5215C17.2522 55.4228 16.984 56.3408 16.7364 57.2501V57.2501ZM163.885 52.0517C163.573 51.1632 163.242 50.271 162.9 49.3998L163.343 49.226C163.687 50.1025 164.021 51.0004 164.334 51.8944L163.885 52.0517ZM18.4322 51.8251L17.9836 51.6665C18.3005 50.7713 18.6382 49.8706 18.9874 48.9894L19.4297 49.1646C19.0826 50.0405 18.747 50.9357 18.4322 51.8251ZM161.818 46.7855C161.443 45.9255 161.047 45.0597 160.64 44.2122L161.069 44.0061C161.478 44.859 161.877 45.7301 162.254 46.5955L161.818 46.7855ZM20.525 46.5435L20.0893 46.3519C20.4713 45.4836 20.8745 44.6109 21.2881 43.7579L21.7162 43.9653C21.3053 44.8131 20.9045 45.6805 20.525 46.5435ZM159.367 41.6833C158.928 40.8505 158.469 40.0158 158.002 39.2025L158.414 38.9655C158.884 39.7838 159.347 40.6236 159.788 41.4616L159.367 41.6833ZM23.0021 41.4337L22.5818 41.2104C23.0271 40.3725 23.4936 39.5322 23.9685 38.713L24.3802 38.9516C23.9082 39.7658 23.4445 40.6009 23.0021 41.4337ZM156.546 36.7731C156.049 35.9761 155.529 35.1771 155.002 34.3982L155.396 34.1315C155.926 34.9153 156.449 35.7193 156.95 36.5211L156.546 36.7731ZM25.8483 36.5223L25.4456 36.2689C25.9504 35.4674 26.4772 34.664 27.0116 33.8811L27.4047 34.1492C26.8736 34.9275 26.3499 35.7259 25.8483 36.5223H25.8483ZM153.371 32.0813C152.818 31.3257 152.242 30.5666 151.656 29.8251L152.03 29.5303C152.619 30.2764 153.199 31.0402 153.755 31.8004L153.371 32.0813ZM29.047 31.8353L28.6641 31.5527C29.2272 30.7894 29.8114 30.0271 30.4006 29.287L30.7728 29.5833C30.1873 30.3189 29.6067 31.0766 29.047 31.8353H29.047ZM149.859 27.6328C149.25 26.9164 148.619 26.2013 147.984 25.5073L148.334 25.186C148.974 25.8842 149.609 26.6037 150.222 27.3245L149.859 27.6328ZM32.5798 27.3963L32.2185 27.0866C32.8344 26.3684 33.4726 25.651 34.1155 24.9546L34.4651 25.2773C33.8262 25.9696 33.1918 26.6825 32.5798 27.3963ZM146.031 23.4515C145.369 22.7802 144.688 22.1129 144.004 21.4682L144.331 21.1221C145.018 21.7708 145.704 22.4422 146.37 23.1177L146.031 23.4515ZM36.4265 23.2291L36.0889 22.8938C36.7571 22.221 37.4459 21.5524 38.136 20.9068L38.461 21.2542C37.7751 21.896 37.0906 22.5604 36.4265 23.2291ZM141.905 19.5601C141.197 18.9394 140.468 18.3235 139.739 17.7295L140.039 17.3606C140.773 17.9581 141.507 18.5778 142.219 19.2023L141.905 19.5601ZM40.5662 19.3552L40.2539 18.9961C40.9689 18.3745 41.7044 17.7582 42.4402 17.1644L42.739 17.5347C42.0078 18.1248 41.2768 18.7374 40.5662 19.3552ZM137.505 15.9794C136.755 15.4132 135.983 14.8522 135.21 14.312L135.482 13.922C136.26 14.4655 137.038 15.03 137.792 15.5995L137.505 15.9794ZM44.9766 15.7952L44.6915 15.4142C45.4503 14.8464 46.2287 14.2858 47.0051 13.7479L47.276 14.1392C46.5044 14.6735 45.7307 15.2308 44.9766 15.7952ZM132.854 12.7298C132.063 12.2193 131.251 11.7163 130.441 11.2351L130.684 10.826C131.499 11.3103 132.316 11.8163 133.112 12.33L132.854 12.7298ZM49.634 12.5688L49.3775 12.1681C50.1748 11.658 50.9919 11.1562 51.8061 10.6764L52.0477 11.0865C51.2384 11.5632 50.4263 12.062 49.634 12.5688V12.5688ZM127.974 9.83011C127.149 9.37985 126.302 8.93795 125.456 8.51674L125.669 8.09088C126.519 8.51477 127.372 8.95934 128.202 9.41239L127.974 9.83011ZM54.5137 9.69396L54.2874 9.2753C55.1192 8.82574 55.9707 8.38547 56.818 7.96692L57.0287 8.39349C56.1865 8.80948 55.3403 9.24707 54.5137 9.69396ZM122.891 7.29687C122.035 6.90865 121.157 6.53064 120.283 6.17308L120.463 5.73258C121.343 6.09235 122.226 6.47291 123.088 6.86357L122.891 7.29687ZM59.5895 7.1871L59.3947 6.7531C60.2557 6.36674 61.1368 5.99059 62.0135 5.63535L62.1922 6.07632C61.3208 6.42946 60.4451 6.80317 59.5895 7.1871ZM117.634 5.14641C116.747 4.82172 115.843 4.50958 114.947 4.21858L115.095 3.766C115.996 4.05887 116.905 4.37297 117.797 4.69963L117.634 5.14641ZM64.8334 5.06253L64.6713 4.61529C65.5597 4.29293 66.4657 3.98323 67.3639 3.69456L67.5094 4.14761C66.6168 4.43442 65.7165 4.74226 64.8334 5.06253ZM112.228 3.39102C111.322 3.1336 110.4 2.88998 109.486 2.66672L109.599 2.20461C110.518 2.42916 111.446 2.67439 112.358 2.93332L112.228 3.39102ZM70.2247 3.33026L70.096 2.8721C71.0065 2.61642 71.9353 2.37398 72.8566 2.15152L72.9682 2.6141C72.0526 2.83516 71.1295 3.07609 70.2247 3.33026ZM106.72 2.04453C105.799 1.85518 104.861 1.68047 103.933 1.52515L104.011 1.05584C104.945 1.21209 105.889 1.38796 106.816 1.57847L106.72 2.04453ZM75.7362 1.99981L75.6419 1.53351C76.5708 1.34543 77.5148 1.17234 78.448 1.019L78.5251 1.48855C77.5978 1.64085 76.6594 1.8129 75.7362 1.99981V1.99981ZM101.128 1.1087C100.193 0.987535 99.2449 0.882403 98.3099 0.795859L98.3537 0.322134C99.2945 0.409144 100.248 0.51497 101.189 0.636829L101.128 1.1087ZM81.3311 1.08047L81.2713 0.608368C82.2089 0.48953 83.1632 0.386374 84.1075 0.30169L84.15 0.775647C83.2114 0.859754 82.263 0.962328 81.3311 1.08047V1.08047ZM95.482 0.586295C94.5444 0.533905 93.5911 0.498126 92.6486 0.479888L92.6579 0.00407126C93.606 0.0225425 94.5651 0.0585518 95.5085 0.111175L95.482 0.586295ZM86.9784 0.574093L86.9534 0.09897C87.8981 0.0489046 88.8576 0.0156805 89.8048 0L89.8127 0.475817C88.8711 0.491274 87.9176 0.524382 86.9784 0.574093Z" fill="#31708E"/>
<path d="M91.1187 155.105C90.6015 155.105 90.0856 155.1 89.5709 155.09L89.5802 154.614C90.5208 154.632 91.4679 154.634 92.4095 154.618L92.4172 155.094C91.9852 155.101 91.5523 155.105 91.1187 155.105ZM95.262 154.996L95.2369 154.521C96.1779 154.472 97.1273 154.404 98.0584 154.321L98.1007 154.795C97.1638 154.879 96.2087 154.946 95.262 154.996ZM86.727 154.983C85.7826 154.93 84.8277 154.859 83.8889 154.773L83.9326 154.299C84.8658 154.385 85.8149 154.455 86.7535 154.508L86.727 154.983ZM100.93 154.49L100.871 154.018C101.807 153.9 102.749 153.763 103.67 153.612L103.747 154.082C102.82 154.234 101.873 154.371 100.93 154.49V154.49ZM81.0601 154.459C80.1199 154.337 79.1727 154.197 78.2447 154.041L78.3232 153.572C79.2454 153.726 80.1868 153.866 81.1212 153.987L81.0601 154.459ZM106.547 153.571L106.453 153.104C107.376 152.918 108.305 152.712 109.215 152.493L109.326 152.956C108.411 153.176 107.476 153.383 106.547 153.571ZM75.4466 153.521C74.5184 153.33 73.584 153.12 72.6695 152.897L72.7824 152.435C73.6912 152.657 74.6198 152.865 75.5423 153.055L75.4466 153.521ZM112.081 152.239L111.952 151.781C112.855 151.528 113.766 151.255 114.662 150.968L114.807 151.421C113.906 151.71 112.989 151.985 112.081 152.239V152.239ZM69.9172 152.172C69.0077 151.914 68.0889 151.635 67.1865 151.342L67.3331 150.89C68.2301 151.18 69.1432 151.458 70.047 151.714L69.9172 152.172ZM117.494 150.505L117.332 150.058C118.211 149.74 119.098 149.4 119.967 149.049L120.146 149.49C119.271 149.844 118.378 150.185 117.494 150.505L117.494 150.505ZM64.4892 150.413C63.5998 150.087 62.7048 149.741 61.8287 149.384L62.0086 148.943C62.8791 149.298 63.7687 149.643 64.6525 149.966L64.4892 150.413ZM122.759 148.379L122.565 147.944C123.421 147.561 124.281 147.157 125.12 146.744L125.33 147.171C124.486 147.587 123.62 147.993 122.759 148.379L122.759 148.379ZM59.209 148.257C58.3468 147.868 57.4802 147.457 56.6332 147.036L56.8451 146.609C57.6867 147.028 58.5481 147.437 59.405 147.824L59.209 148.257ZM127.857 145.869L127.631 145.45C128.458 145.004 129.286 144.538 130.093 144.065L130.334 144.475C129.522 144.951 128.689 145.42 127.857 145.869H127.857ZM54.1047 145.719C53.2734 145.267 52.4398 144.794 51.6269 144.312L51.8696 143.902C52.6775 144.381 53.506 144.852 54.3322 145.301L54.1047 145.719ZM132.759 142.99L132.503 142.589C133.291 142.087 134.083 141.561 134.858 141.026L135.128 141.418C134.349 141.956 133.552 142.485 132.759 142.99H132.759ZM49.2032 142.814C48.4086 142.303 47.6123 141.77 46.8363 141.229L47.1082 140.839C47.8796 141.376 48.671 141.906 49.4606 142.414L49.2032 142.814ZM137.439 139.76L137.154 139.378C137.905 138.818 138.657 138.236 139.389 137.647L139.688 138.018C138.951 138.611 138.194 139.196 137.439 139.76L137.439 139.76ZM44.5296 139.558C43.776 138.992 43.0211 138.402 42.2858 137.805L42.5855 137.436C43.3163 138.029 44.0667 138.615 44.8156 139.178L44.5296 139.558ZM141.872 136.194L141.56 135.835C142.269 135.221 142.977 134.585 143.664 133.945L143.988 134.293C143.297 134.937 142.585 135.576 141.872 136.194L141.872 136.194ZM40.1078 135.971C39.3955 135.348 38.6859 134.705 37.9987 134.059L38.3247 133.712C39.0076 134.354 39.7129 134.994 40.421 135.612L40.1078 135.971ZM146.035 132.315L145.698 131.979C146.363 131.312 147.022 130.626 147.659 129.94L148.008 130.263C147.367 130.954 146.704 131.644 146.035 132.315ZM35.9611 132.071C35.2981 131.401 34.6375 130.708 33.9974 130.011L34.3478 129.689C34.9839 130.382 35.6405 131.07 36.2995 131.737L35.9611 132.071ZM149.904 128.14L149.544 127.83C150.158 127.117 150.766 126.384 151.351 125.652L151.723 125.95C151.134 126.686 150.522 127.423 149.904 128.14ZM32.1106 127.881C31.4981 127.164 30.89 126.425 30.3031 125.684L30.676 125.389C31.2592 126.124 31.8637 126.859 32.4726 127.572L32.1106 127.881ZM153.461 123.693L153.079 123.41C153.64 122.652 154.194 121.877 154.723 121.105L155.115 121.374C154.583 122.151 154.026 122.931 153.461 123.693ZM28.5773 123.423C28.0182 122.663 27.4658 121.881 26.9354 121.101L27.329 120.834C27.856 121.609 28.405 122.385 28.9607 123.142L28.5773 123.423ZM156.683 118.996L156.282 118.741C156.784 117.949 157.278 117.135 157.753 116.322L158.164 116.562C157.687 117.38 157.189 118.199 156.683 118.996ZM25.3801 118.721C24.8787 117.922 24.3851 117.103 23.9132 116.286L24.3252 116.048C24.7943 116.86 25.2848 117.674 25.7832 118.468L25.3801 118.721ZM159.554 114.074L159.134 113.85C159.579 113.018 160.013 112.169 160.424 111.328L160.852 111.536C160.438 112.383 160.002 113.237 159.554 114.074ZM22.5369 113.799C22.0954 112.966 21.6635 112.113 21.2533 111.265L21.6817 111.057C22.0893 111.9 22.5186 112.748 22.9574 113.577L22.5369 113.799ZM162.055 108.952L161.62 108.76C162.001 107.901 162.371 107.022 162.721 106.148L163.163 106.324C162.811 107.204 162.438 108.089 162.055 108.952V108.952ZM20.064 108.684C19.6847 107.82 19.3169 106.938 18.9707 106.063L19.4132 105.888C19.7572 106.758 20.1227 107.634 20.4996 108.493L20.064 108.684ZM164.172 103.657L163.724 103.496C164.041 102.609 164.346 101.705 164.629 100.809L165.083 100.952C164.798 101.854 164.491 102.763 164.172 103.657ZM17.9754 103.404C17.6606 102.514 17.3581 101.605 17.0765 100.703L17.5307 100.562C17.8106 101.458 18.1111 102.361 18.424 103.246L17.9754 103.404ZM165.892 98.2158L165.433 98.0889C165.682 97.187 165.918 96.2651 166.135 95.3488L166.598 95.4585C166.38 96.3804 166.143 97.3081 165.892 98.2158ZM16.2781 97.9716C16.0304 97.0616 15.7962 96.1343 15.582 95.2152L16.0455 95.1074C16.2584 96.0207 16.491 96.9424 16.7372 97.8466L16.2781 97.9716Z" fill="#31708E"/>
<path d="M91.1186 119.3C90.5487 119.3 89.9735 119.289 89.4091 119.266L89.4284 118.79C90.3648 118.828 91.3219 118.835 92.2613 118.809L92.2743 119.285C91.8903 119.295 91.505 119.3 91.1186 119.3ZM95.134 119.109L95.0889 118.636C96.0259 118.547 96.9709 118.424 97.8979 118.27L97.9755 118.74C97.0378 118.895 96.0818 119.019 95.134 119.109ZM86.5518 119.053C85.6054 118.95 84.6512 118.813 83.7157 118.646L83.7995 118.177C84.7243 118.343 85.6676 118.478 86.6033 118.58L86.5518 119.053ZM100.785 118.175L100.675 117.713C101.591 117.495 102.51 117.244 103.407 116.964L103.548 117.419C102.641 117.701 101.712 117.956 100.785 118.175V118.175ZM80.914 118.044C79.99 117.812 79.0633 117.545 78.1597 117.25L78.3072 116.797C79.2005 117.089 80.1165 117.353 81.0299 117.583L80.914 118.044ZM106.253 116.472L106.081 116.029C106.956 115.688 107.832 115.312 108.683 114.911L108.886 115.342C108.025 115.747 107.139 116.128 106.253 116.472V116.472ZM75.467 116.267C74.5843 115.91 73.7034 115.518 72.8488 115.101L73.0574 114.673C73.9022 115.085 74.773 115.473 75.6455 115.826L75.467 116.267ZM111.435 114.032L111.203 113.617C112.025 113.158 112.841 112.665 113.628 112.152L113.888 112.551C113.092 113.07 112.267 113.568 111.435 114.032ZM70.317 113.758C69.4924 113.283 68.6738 112.773 67.884 112.243L68.1491 111.848C68.9299 112.372 69.7391 112.876 70.5545 113.345L70.317 113.758ZM116.234 110.905L115.947 110.525C116.699 109.958 117.44 109.358 118.15 108.743L118.462 109.102C117.744 109.725 116.995 110.331 116.234 110.905ZM65.5602 110.566C64.8068 109.982 64.0653 109.365 63.3565 108.733L63.6732 108.378C64.3739 109.003 65.1069 109.612 65.8517 110.19L65.5602 110.566ZM120.561 107.152L120.225 106.815C120.893 106.151 121.545 105.456 122.165 104.749L122.523 105.063C121.896 105.778 121.236 106.481 120.561 107.152V107.152ZM61.283 106.756C60.6176 106.076 59.967 105.365 59.3492 104.641L59.7112 104.332C60.3219 105.048 60.9652 105.751 61.6229 106.423L61.283 106.756ZM124.337 102.845L123.959 102.557C124.529 101.809 125.081 101.032 125.6 100.246L125.997 100.508C125.472 101.303 124.914 102.089 124.337 102.845ZM57.5642 102.399C56.9968 101.635 56.4492 100.841 55.9366 100.041L56.3374 99.7842C56.8441 100.575 57.3854 101.36 57.9464 102.116L57.5642 102.399ZM127.491 98.0636L127.077 97.8294C127.54 97.0109 127.98 96.1654 128.386 95.3165L128.815 95.5216C128.405 96.3803 127.96 97.2355 127.491 98.0636H127.491ZM54.4748 97.5766C54.0172 96.7411 53.5834 95.8801 53.1855 95.0177L53.6177 94.8184C54.0109 95.671 54.4398 96.5221 54.892 97.348L54.4748 97.5766Z" fill="#31708E"/>
<path d="M54.608 58.2758L54.1875 58.0535C54.6369 57.2035 55.1224 56.358 55.6304 55.5408L56.0344 55.7919C55.5324 56.5999 55.0525 57.4356 54.608 58.2758ZM127.256 57.5827C126.796 56.7517 126.3 55.9254 125.783 55.1266L126.182 54.8678C126.705 55.6758 127.207 56.5117 127.672 57.3523L127.256 57.5827ZM57.6296 53.413L57.2438 53.1344C57.8069 52.3545 58.4044 51.5844 59.0199 50.8453L59.3856 51.1499C58.7771 51.8805 58.1863 52.6418 57.6296 53.413ZM124.142 52.7785C123.571 52.0188 122.966 51.2688 122.344 50.5492L122.703 50.2379C123.333 50.9657 123.945 51.7242 124.523 52.4927L124.142 52.7785ZM61.2934 49.0134L60.9495 48.6844C61.6145 47.9896 62.3123 47.309 63.0236 46.6615L63.344 47.0135C62.6407 47.6536 61.9508 48.3264 61.2934 49.0134ZM120.396 48.4494C119.725 47.7749 119.023 47.1152 118.308 46.4886L118.621 46.1308C119.345 46.7645 120.055 47.4318 120.733 48.1139L120.396 48.4494ZM65.5274 45.1596L65.2321 44.7865C65.987 44.1892 66.7718 43.6112 67.5647 43.0684L67.8335 43.461C67.0495 43.9977 66.2737 44.5691 65.5274 45.1596ZM116.089 44.6767C115.333 44.1012 114.546 43.5445 113.751 43.0222L114.012 42.6245C114.817 43.1528 115.612 43.7159 116.378 44.298L116.089 44.6767ZM70.2515 41.9263L70.0106 41.516C70.8399 41.0292 71.6971 40.5652 72.5583 40.137L72.7701 40.5631C71.9188 40.9863 71.0715 41.445 70.2515 41.9263ZM111.304 41.5338C110.474 41.0675 109.618 40.6251 108.76 40.2188L108.963 39.7887C109.831 40.1997 110.697 40.6473 111.537 41.1189L111.304 41.5338ZM75.3776 39.3783L75.1959 38.9385C76.0848 38.5714 76.9983 38.2312 77.9106 37.9272L78.0609 38.3786C77.1591 38.6791 76.2563 39.0154 75.3776 39.3783ZM106.13 39.0844C105.243 38.7381 104.334 38.4193 103.427 38.1364L103.569 37.6822C104.486 37.9683 105.406 38.2909 106.303 38.6411L106.13 39.0844ZM80.8078 37.5689L80.6893 37.1081C81.6203 36.8687 82.5723 36.659 83.5187 36.485L83.6046 36.9529C82.6691 37.1249 81.7282 37.3322 80.8078 37.5689ZM100.665 37.3796C99.7401 37.1606 98.7953 36.9715 97.8569 36.8174L97.9341 36.3479C98.8833 36.5037 99.839 36.695 100.775 36.9165L100.665 37.3796ZM86.4378 36.5331L86.3844 36.0603C87.337 35.9527 88.3087 35.8768 89.2725 35.8347L89.2933 36.31C88.3403 36.3517 87.3796 36.4268 86.4378 36.5331ZM95.0164 36.452C94.0719 36.3635 93.1099 36.3067 92.1575 36.2832L92.1691 35.8076C93.1326 35.8313 94.1055 35.8887 95.0608 35.9783L95.0164 36.452Z" fill="#31708E"/>
<path d="M135.278 77.4912C134.653 77.4888 134.047 77.7033 133.562 78.0981C133.078 78.493 132.745 79.0436 132.622 79.6562C132.498 80.2688 132.591 80.9054 132.884 81.4572C133.177 82.0091 133.653 82.4421 134.23 82.6824C134.807 82.9227 135.449 82.9553 136.048 82.7748C136.646 82.5943 137.163 82.2117 137.511 81.6924C137.858 81.1731 138.015 80.5493 137.954 79.9273C137.893 79.3053 137.618 78.7237 137.176 78.2818C136.928 78.0307 136.633 77.8315 136.307 77.6957C135.981 77.56 135.631 77.4905 135.278 77.4912Z" fill="#3F3D56"/>
<path d="M124.516 77.4912C123.892 77.4888 123.285 77.7033 122.801 78.0981C122.316 78.4929 121.984 79.0436 121.86 79.6562C121.736 80.2688 121.829 80.9053 122.122 81.4572C122.416 82.0091 122.891 82.4421 123.468 82.6824C124.045 82.9227 124.687 82.9553 125.286 82.7748C125.884 82.5943 126.401 82.2117 126.749 81.6924C127.097 81.1731 127.253 80.5493 127.192 79.9273C127.131 79.3053 126.857 78.7237 126.415 78.2818C126.166 78.0313 125.87 77.8325 125.545 77.6968C125.219 77.5611 124.869 77.4913 124.516 77.4912Z" fill="#3F3D56"/>
<path d="M129.899 62.5586C127.217 62.5586 124.595 63.3539 122.365 64.844C120.135 66.3341 118.397 68.452 117.37 70.9299C116.344 73.4078 116.075 76.1344 116.598 78.765C117.122 81.3955 118.413 83.8118 120.31 85.7083C122.206 87.6048 124.623 88.8963 127.253 89.4196C129.884 89.9428 132.61 89.6743 135.088 88.6479C137.566 87.6215 139.684 85.8834 141.174 83.6533C142.664 81.4233 143.459 78.8014 143.459 76.1194C143.459 72.5228 142.031 69.0736 139.488 66.5305C136.944 63.9873 133.495 62.5586 129.899 62.5586ZM132.534 68.2135C132.706 68.2118 132.877 68.2446 133.037 68.3098C133.197 68.375 133.342 68.4714 133.464 68.5933C133.585 68.7153 133.682 68.8603 133.747 69.0199C133.812 69.1795 133.845 69.3505 133.843 69.5229C133.845 69.7842 133.769 70.0401 133.625 70.2581C133.481 70.476 133.275 70.6462 133.034 70.7469C132.793 70.8477 132.527 70.8745 132.271 70.8239C132.014 70.7733 131.779 70.6476 131.594 70.4629C131.409 70.2781 131.284 70.0426 131.233 69.7862C131.182 69.5298 131.209 69.2642 131.31 69.0231C131.411 68.782 131.581 68.5763 131.799 68.4321C132.017 68.288 132.273 68.2119 132.534 68.2135ZM124.517 84.0253C123.757 84.0257 123.013 83.8005 122.381 83.3783C121.748 82.9561 121.255 82.3558 120.964 81.6534C120.673 80.9509 120.597 80.1779 120.745 79.432C120.893 78.6862 121.259 78.0011 121.797 77.4634C122.335 76.9257 123.02 76.5596 123.765 76.4114C124.511 76.2631 125.284 76.3394 125.987 76.6306C126.689 76.9218 127.29 77.4148 127.712 78.0472C128.134 78.6796 128.359 79.4231 128.359 80.1835C128.355 81.2013 127.949 82.1765 127.23 82.8963C126.51 83.616 125.535 84.0218 124.517 84.0253H124.517ZM130.558 76.3664V80.0723C130.558 80.247 130.488 80.4146 130.365 80.5382C130.241 80.6617 130.073 80.7311 129.899 80.7311C129.724 80.7311 129.556 80.6617 129.433 80.5382C129.309 80.4146 129.24 80.247 129.24 80.0723V77.3588C129.24 76.8194 128.581 76.7 126.708 75.6211C126.465 75.477 125.946 75.2217 125.946 74.5053C125.95 74.16 126.087 73.8296 126.329 73.5829L129.281 70.7376C129.421 70.5958 129.592 70.4885 129.781 70.424C129.969 70.3595 130.17 70.3396 130.368 70.366C130.565 70.3923 130.754 70.4641 130.919 70.5758C131.084 70.6874 131.221 70.8358 131.319 71.0094L132.534 73.4841H134.51C134.685 73.4844 134.852 73.554 134.976 73.6775C135.099 73.801 135.168 73.9684 135.168 74.1429C135.168 74.3174 135.099 74.4848 134.976 74.6083C134.852 74.7318 134.685 74.8014 134.51 74.8017H132.147C131.706 74.8017 131.352 73.8547 130.582 72.6811L128.569 74.8017C129.306 75.3782 130.558 75.8229 130.558 76.3664H130.558ZM135.28 84.0211C134.521 84.0211 133.778 83.7958 133.146 83.3737C132.514 82.9515 132.022 82.3515 131.731 81.6495C131.44 80.9476 131.364 80.1751 131.513 79.4299C131.661 78.6847 132.027 78.0001 132.564 77.4628C133.101 76.9256 133.786 76.5597 134.531 76.4114C135.276 76.2632 136.049 76.3393 136.751 76.6301C137.453 76.9208 138.053 77.4132 138.475 78.045C138.897 78.6768 139.122 79.4195 139.122 80.1794C139.119 81.1973 138.713 82.1726 137.993 82.8924C137.274 83.6122 136.298 84.0179 135.28 84.0211H135.28Z" fill="#3F3D56"/>
<path d="M168.44 62.5586C165.758 62.5586 163.136 63.3539 160.906 64.844C158.676 66.3341 156.938 68.452 155.911 70.9299C154.885 73.4078 154.616 76.1344 155.139 78.765C155.663 81.3955 156.954 83.8118 158.851 85.7083C160.747 87.6048 163.164 88.8963 165.794 89.4196C168.425 89.9428 171.151 89.6743 173.629 88.6479C176.107 87.6215 178.225 85.8834 179.715 83.6533C181.205 81.4233 182 78.8014 182 76.1194C182 72.5228 180.572 69.0736 178.029 66.5305C175.485 63.9873 172.036 62.5586 168.44 62.5586ZM164.845 72.2529C165.26 72.2625 165.663 72.3943 166.003 72.6318C166.343 72.8693 166.606 73.202 166.758 73.5881C166.91 73.9742 166.945 74.3966 166.858 74.8024C166.771 75.2082 166.567 75.5794 166.27 75.8694C165.973 76.1595 165.597 76.3555 165.19 76.4329C164.782 76.5103 164.36 76.4657 163.978 76.3047C163.595 76.1437 163.269 75.8734 163.039 75.5276C162.81 75.1819 162.687 74.7761 162.687 74.3611C162.69 74.081 162.749 73.8041 162.859 73.5465C162.969 73.2888 163.129 73.0554 163.329 72.8596C163.529 72.6638 163.766 72.5094 164.027 72.4053C164.287 72.3012 164.565 72.2494 164.845 72.2529V72.2529ZM176.346 81.3899H174.909V79.2817H161.971V81.3899H160.534V70.8488H161.971V77.1735H167.719V72.2529H173.471C173.845 72.2488 174.215 72.3183 174.562 72.4574C174.908 72.5965 175.224 72.8025 175.491 73.0637C175.758 73.3249 175.971 73.636 176.117 73.9795C176.264 74.3229 176.342 74.6919 176.346 75.0653V81.3899Z" fill="#3F3D56"/>
<path d="M18.3367 72.4961H14.3014C14.2578 72.4962 14.216 72.5136 14.1851 72.5445C14.1542 72.5753 14.1368 72.6172 14.1367 72.6608V78.4255C14.1368 78.4692 14.1542 78.511 14.1851 78.5418C14.216 78.5727 14.2578 78.5901 14.3014 78.5902H18.3367C18.5113 78.5897 18.6786 78.5201 18.802 78.3967C18.9254 78.2732 18.995 78.106 18.9955 77.9314V73.1549C18.995 72.9803 18.9254 72.8131 18.802 72.6896C18.6786 72.5662 18.5113 72.4966 18.3367 72.4961Z" fill="#3F3D56"/>
<path d="M17.4306 79.8254C17.2424 79.8407 17.0625 79.9096 16.9122 80.0238C16.7618 80.1381 16.6473 80.2931 16.5822 80.4703C16.5171 80.6476 16.504 80.8398 16.5446 81.0242C16.5852 81.2087 16.6777 81.3776 16.8113 81.5112C16.9448 81.6447 17.1138 81.7373 17.2982 81.7779C17.4827 81.8184 17.6749 81.8054 17.8521 81.7403C18.0294 81.6752 18.1843 81.5607 18.2986 81.4103C18.4129 81.26 18.4818 81.0801 18.4971 80.8918C18.5084 80.7489 18.4886 80.6052 18.439 80.4707C18.3894 80.3362 18.3112 80.214 18.2099 80.1126C18.1085 80.0112 17.9863 79.933 17.8518 79.8835C17.7173 79.8339 17.5736 79.814 17.4306 79.8254Z" fill="#3F3D56"/>
<path d="M9.5283 79.8254C9.34007 79.8407 9.16016 79.9096 9.00981 80.0238C8.85946 80.1381 8.74496 80.2931 8.67984 80.4703C8.61471 80.6476 8.60168 80.8398 8.64227 81.0242C8.68287 81.2087 8.7754 81.3776 8.90894 81.5112C9.04248 81.6447 9.21145 81.7373 9.39589 81.7779C9.58033 81.8184 9.77253 81.8054 9.9498 81.7403C10.1271 81.6752 10.282 81.5607 10.3963 81.4103C10.5106 81.26 10.5794 81.0801 10.5948 80.8918C10.6061 80.7489 10.5863 80.6052 10.5367 80.4707C10.4871 80.3362 10.4089 80.214 10.3075 80.1126C10.2061 80.0112 10.084 79.933 9.94944 79.8835C9.81491 79.8339 9.67123 79.814 9.5283 79.8254Z" fill="#3F3D56"/>
<path d="M12.8191 72.4961H8.79206C8.61534 72.4967 8.44605 72.5672 8.3211 72.6922C8.19614 72.8172 8.12565 72.9864 8.125 73.1631V77.9231C8.12565 78.0999 8.19614 78.2691 8.3211 78.3941C8.44605 78.5191 8.61534 78.5895 8.79206 78.5902H12.8191C12.8628 78.5901 12.9046 78.5727 12.9354 78.5418C12.9663 78.511 12.9837 78.4692 12.9838 78.4255V72.6608C12.9837 72.6172 12.9663 72.5753 12.9354 72.5445C12.9046 72.5136 12.8628 72.4962 12.8191 72.4961Z" fill="#3F3D56"/>
<path d="M13.5608 62.5586C10.8787 62.5586 8.25688 63.3539 6.02682 64.844C3.79676 66.3341 2.05864 68.452 1.03226 70.9299C0.00587592 73.4078 -0.262673 76.1344 0.260573 78.765C0.783818 81.3955 2.07536 83.8118 3.97187 85.7083C5.86838 87.6048 8.28468 88.8963 10.9152 89.4196C13.5457 89.9428 16.2724 89.6743 18.7503 88.6479C21.2282 87.6215 23.3461 85.8834 24.8362 83.6533C26.3262 81.4233 27.1216 78.8014 27.1216 76.1194C27.1216 72.5228 25.6928 69.0736 23.1497 66.5305C20.6066 63.9873 17.1573 62.5586 13.5608 62.5586ZM20.149 81.637C20.1477 82.0735 19.9738 82.4916 19.6652 82.8002C19.3566 83.1089 18.9384 83.2828 18.502 83.2841H8.61961C8.18318 83.2828 7.76499 83.1089 7.45638 82.8002C7.14777 82.4916 6.97383 82.0735 6.97255 81.637V70.2723C6.97357 69.9232 7.11272 69.5886 7.35961 69.3417C7.60649 69.0948 7.94105 68.9557 8.2902 68.9547H18.8314C19.1805 68.9557 19.5151 69.0948 19.762 69.3417C20.0089 69.5886 20.148 69.9232 20.149 70.2723V81.637Z" fill="#3F3D56"/>
<path d="M18.3779 70.1078H8.74265C8.6636 70.1024 8.58427 70.1132 8.5096 70.1397C8.43492 70.1662 8.3665 70.2078 8.30857 70.2618C8.25065 70.3159 8.20446 70.3813 8.17288 70.454C8.1413 70.5267 8.125 70.605 8.125 70.6843C8.125 70.7635 8.1413 70.8419 8.17288 70.9146C8.20446 70.9873 8.25065 71.0527 8.30857 71.1067C8.3665 71.1608 8.43492 71.2024 8.5096 71.2289C8.58427 71.2554 8.6636 71.2662 8.74265 71.2608H18.3779C18.457 71.2662 18.5363 71.2554 18.611 71.2289C18.6857 71.2024 18.7541 71.1608 18.812 71.1067C18.8699 71.0527 18.9161 70.9873 18.9477 70.9146C18.9793 70.8419 18.9956 70.7635 18.9956 70.6843C18.9956 70.605 18.9793 70.5267 18.9477 70.454C18.9161 70.3813 18.8699 70.3159 18.812 70.2618C18.7541 70.2078 18.6857 70.1662 18.611 70.1397C18.5363 70.1132 18.457 70.1024 18.3779 70.1078Z" fill="#3F3D56"/>
<path d="M54.1523 76.4912C53.8806 76.4912 53.6582 76.8947 53.6582 77.3971C53.6582 77.8994 53.8806 78.303 54.1523 78.303C54.4241 78.303 54.6465 77.8995 54.6465 77.3971C54.6465 76.8947 54.4241 76.4912 54.1523 76.4912Z" fill="#3F3D56"/>
<path d="M50.5293 76.4912C50.2575 76.4912 50.0352 76.8947 50.0352 77.3971C50.0352 77.8994 50.2575 78.303 50.5293 78.303C50.8011 78.303 51.0234 77.8995 51.0234 77.3971C51.0234 76.8947 50.801 76.4912 50.5293 76.4912Z" fill="#3F3D56"/>
<path d="M52.3401 62.5586C49.658 62.5586 47.0362 63.3539 44.8061 64.844C42.5761 66.3341 40.8379 68.452 39.8116 70.9299C38.7852 73.4078 38.5166 76.1344 39.0399 78.765C39.5631 81.3955 40.8547 83.8118 42.7512 85.7083C44.6477 87.6048 47.064 88.8963 49.6945 89.4196C52.325 89.9428 55.0517 89.6743 57.5296 88.6479C60.0075 87.6215 62.1254 85.8834 63.6155 83.6533C65.1055 81.4233 65.9009 78.8014 65.9009 76.1194C65.9009 72.5228 64.4721 69.0736 61.929 66.5305C59.3859 63.9873 55.9366 62.5586 52.3401 62.5586ZM45.9989 75.6582L46.7483 71.6723C46.9418 70.5894 47.4442 69.737 48.3871 69.737H49.8036L49.886 69.4117C49.9581 69.1279 50.1228 68.8763 50.354 68.6966C50.5851 68.5169 50.8696 68.4193 51.1624 68.4194H53.5095C53.8017 68.4192 54.0857 68.5162 54.3168 68.6951C54.5479 68.874 54.7129 69.1247 54.786 69.4076L54.8683 69.737H56.293C57.2154 69.737 57.7054 70.5729 57.936 71.6682V71.6723L58.6895 75.6623C58.6955 75.6921 58.6931 75.723 58.6826 75.7515C58.672 75.78 58.6538 75.8051 58.6299 75.8238C58.606 75.8426 58.5774 75.8544 58.5472 75.8579C58.517 75.8613 58.4864 75.8564 58.4589 75.8435L57.413 75.3617C57.3884 75.3515 57.3668 75.3352 57.3502 75.3143C57.3336 75.2934 57.3226 75.2686 57.3183 75.2423L56.6513 71.7176C56.5277 71.2647 56.3548 71.0588 55.9883 71.0588H48.696C48.3336 71.0588 48.136 71.277 48.033 71.7176L47.366 75.2423C47.3609 75.2683 47.3496 75.2928 47.3332 75.3136C47.3167 75.3343 47.2955 75.3509 47.2713 75.3617L46.2295 75.8394C46.2019 75.8518 46.1715 75.8565 46.1415 75.8529C46.1115 75.8492 46.083 75.8374 46.0592 75.8188C46.0354 75.8001 46.0172 75.7752 46.0066 75.7469C45.996 75.7186 45.9933 75.6879 45.9989 75.6582ZM60.5218 78.2235L58.2695 83.8194C57.1371 83.8194 55.9348 82.9135 55.9348 82.9135C55.1936 83.2882 53.7483 83.6176 52.6695 83.6794C52.5542 83.6835 52.443 83.6876 52.3401 83.6876C52.2371 83.6876 52.126 83.6876 52.0107 83.6794C50.9318 83.6176 49.4866 83.2841 48.7454 82.9135C48.7454 82.9135 47.543 83.8194 46.4107 83.8194L44.1583 78.2235C44.1236 78.1356 44.1054 78.0421 44.1048 77.9476C44.1048 77.8055 44.1456 77.6664 44.2222 77.5467C44.2988 77.427 44.4081 77.3318 44.5371 77.2723L52.2001 73.7517C52.2432 73.7314 52.2903 73.7208 52.338 73.7208C52.3857 73.7208 52.4328 73.7314 52.476 73.7517L60.143 77.2723C60.272 77.3318 60.3813 77.427 60.458 77.5467C60.5346 77.6664 60.5753 77.8055 60.5754 77.9476C60.5747 78.0421 60.5566 78.1356 60.5218 78.2235Z" fill="#3F3D56"/>
<path d="M91.1194 62.5586C88.4373 62.5586 85.8155 63.3539 83.5854 64.844C81.3554 66.3341 79.6172 68.452 78.5909 70.9299C77.5645 73.4078 77.2959 76.1344 77.8192 78.765C78.3424 81.3955 79.634 83.8118 81.5305 85.7083C83.427 87.6048 85.8433 88.8963 88.4738 89.4196C91.1043 89.9428 93.831 89.6743 96.3089 88.6479C98.7868 87.6215 100.905 85.8834 102.395 83.6533C103.885 81.4233 104.68 78.8014 104.68 76.1194C104.68 72.5228 103.251 69.0736 100.708 66.5305C98.1652 63.9873 94.7159 62.5586 91.1194 62.5586ZM97.3664 77.4411C97.2264 77.4411 96.7611 77.437 96.6252 77.4288L93.9529 77.3588C93.939 77.3584 93.9253 77.3617 93.913 77.3682C93.9007 77.3747 93.8904 77.3842 93.8828 77.3958L89.8723 83.3911C89.8129 83.4847 89.7307 83.5617 89.6335 83.615C89.5363 83.6683 89.4272 83.6961 89.3164 83.6958H88.3405C88.1099 83.6958 88.0317 83.4653 88.114 83.2511L90.177 77.367C90.1817 77.3548 90.1834 77.3416 90.182 77.3286C90.1806 77.3156 90.176 77.3031 90.1688 77.2922C90.1615 77.2813 90.1517 77.2723 90.1403 77.266C90.1288 77.2596 90.116 77.2562 90.1029 77.2558L85.0917 77.1447C85.0396 77.1435 84.988 77.1544 84.9408 77.1766C84.8937 77.1987 84.8523 77.2315 84.8199 77.2723L83.2676 79.1541C83.2054 79.2321 83.1265 79.2952 83.0367 79.3387C82.9469 79.3822 82.8485 79.4049 82.7487 79.4053H82.0611C82.0347 79.4055 82.0087 79.3995 81.9852 79.3875C81.9617 79.3756 81.9414 79.3582 81.9261 79.3368C81.9107 79.3154 81.9008 79.2906 81.897 79.2645C81.8933 79.2385 81.8959 79.2119 81.9046 79.187L82.724 76.3582C82.7858 76.2007 82.7858 76.0257 82.724 75.8682L81.9046 73.0394C81.8959 73.0145 81.8933 72.9879 81.897 72.9618C81.9008 72.9358 81.9107 72.911 81.9261 72.8896C81.9414 72.8682 81.9617 72.8508 81.9852 72.8388C82.0087 72.8269 82.0347 72.8209 82.0611 72.8211H82.7529C82.8528 72.8206 82.9515 72.8429 83.0414 72.8864C83.1314 72.93 83.2102 72.9936 83.2717 73.0723L84.7952 74.9253C84.8273 74.9664 84.8686 74.9994 84.9158 75.0216C84.963 75.0438 85.0148 75.0545 85.067 75.0529L90.107 74.9788C90.1202 74.9787 90.1331 74.9754 90.1448 74.9692C90.1564 74.9629 90.1663 74.9539 90.1736 74.9429C90.1809 74.9319 90.1854 74.9193 90.1867 74.9062C90.188 74.8931 90.1861 74.8798 90.1811 74.8676L88.1181 68.9876C88.0358 68.7735 88.114 68.5429 88.3446 68.5429H89.3205C89.4313 68.5431 89.5402 68.5711 89.6373 68.6244C89.7344 68.6776 89.8166 68.7544 89.8764 68.8476L93.8828 74.847C93.89 74.859 93.9003 74.8688 93.9127 74.8754C93.925 74.8819 93.9389 74.8849 93.9529 74.8841L96.6252 74.8141C96.757 74.8058 97.2264 74.8017 97.3664 74.8017C99.1946 74.8017 100.343 75.3947 100.343 76.1235C100.343 76.8523 99.1905 77.4411 97.3664 77.4411Z" fill="#3F3D56"/>
<path d="M15.6225 121.831C15.0578 121.831 14.5059 121.663 14.0364 121.35C13.5669 121.036 13.201 120.59 12.9849 120.069C12.7688 119.547 12.7123 118.973 12.8224 118.419C12.9326 117.865 13.2045 117.357 13.6038 116.957C14.003 116.558 14.5117 116.286 15.0655 116.176C15.6193 116.066 16.1933 116.122 16.715 116.338C17.2367 116.554 17.6825 116.92 17.9962 117.39C18.3099 117.859 18.4774 118.411 18.4774 118.976C18.4765 119.733 18.1755 120.459 17.6402 120.994C17.105 121.529 16.3794 121.83 15.6225 121.831ZM15.6225 116.597C15.1519 116.597 14.692 116.736 14.3007 116.998C13.9095 117.259 13.6046 117.631 13.4245 118.066C13.2444 118.5 13.1973 118.979 13.2891 119.44C13.3809 119.902 13.6075 120.326 13.9402 120.658C14.2729 120.991 14.6968 121.218 15.1583 121.309C15.6198 121.401 16.0982 121.354 16.5329 121.174C16.9676 120.994 17.3392 120.689 17.6006 120.298C17.862 119.906 18.0016 119.447 18.0016 118.976C18.0009 118.345 17.75 117.741 17.304 117.295C16.858 116.848 16.2532 116.598 15.6225 116.597Z" fill="#F0F0F0"/>
<path d="M75.8158 57.8338C75.2512 57.8338 74.6992 57.6664 74.2297 57.3527C73.7603 57.039 73.3943 56.5931 73.1783 56.0715C72.9622 55.5498 72.9056 54.9758 73.0158 54.422C73.126 53.8682 73.3979 53.3595 73.7971 52.9602C74.1964 52.5609 74.7051 52.289 75.2589 52.1789C75.8127 52.0687 76.3867 52.1253 76.9084 52.3413C77.43 52.5574 77.8759 52.9233 78.1896 53.3928C78.5033 53.8623 78.6707 54.4143 78.6707 54.9789C78.6699 55.7358 78.3688 56.4615 77.8336 56.9967C77.2984 57.5319 76.5727 57.833 75.8158 57.8338ZM75.8158 52.5998C75.3453 52.5998 74.8853 52.7394 74.4941 53.0008C74.1029 53.2622 73.7979 53.6338 73.6179 54.0685C73.4378 54.5032 73.3907 54.9816 73.4825 55.4431C73.5743 55.9046 73.8009 56.3285 74.1336 56.6612C74.4663 56.9939 74.8902 57.2205 75.3517 57.3123C75.8132 57.4041 76.2916 57.357 76.7263 57.1769C77.161 56.9968 77.5326 56.6919 77.794 56.3007C78.0554 55.9094 78.1949 55.4495 78.1949 54.9789C78.1942 54.3482 77.9433 53.7435 77.4973 53.2974C77.0513 52.8514 76.4466 52.6005 75.8158 52.5998Z" fill="#F0F0F0"/>
<path d="M128.981 136.193L125.777 132.758L129.212 129.555L132.415 132.989L128.981 136.193ZM126.288 132.776L128.999 135.682L131.905 132.971L129.194 130.065L126.288 132.776Z" fill="#F0F0F0"/>
</svg>
