<svg width="131" height="253" viewBox="0 0 131 253" fill="none" xmlns="http://www.w3.org/2000/svg">
<path d="M130 36.0054C130 36.0054 75.4805 34.6304 47.2354 75.794C8.04887 132.903 62.1929 252 62.1929 252" stroke="#193948" stroke-width="2" stroke-dasharray="7 7"/>
<path d="M43 163L38 173L25 168.5" stroke="#193948" stroke-width="2"/>
<path d="M114.566 5.19159L120.967 0.071701C115.994 -0.476949 113.951 2.23521 113.114 4.38188C109.229 2.76865 105 4.88286 105 4.88286L117.808 9.53261C117.162 7.80678 116.037 6.30092 114.566 5.19159Z" fill="#3F3D56"/>
<path d="M9.56556 49.6379L15.9669 44.518C10.994 43.9693 8.95068 46.6815 8.11443 48.8282C4.22937 47.2149 0 49.3292 0 49.3292L12.808 53.9789C12.1618 52.2531 11.0371 50.7472 9.56556 49.6379Z" fill="#3F3D56"/>
</svg>
