<svg version="1.1" id="Layer_1" xmlns="http://www.w3.org/2000/svg" xmlns:xlink="http://www.w3.org/1999/xlink" x="0px" y="0px"
	 width="100%" viewBox="0 0 500 173" enable-background="new 0 0 500 173" xml:space="preserve">
<path fill="#FEFEFE" opacity="1.000000" stroke="none" 
	d="
M316.000000,174.000000 
	C210.666702,174.000000 105.833405,174.000000 1.000084,174.000000 
	C1.000056,116.333389 1.000056,58.666782 1.000028,1.000131 
	C167.666550,1.000087 334.333099,1.000087 500.999725,1.000044 
	C500.999817,58.666531 500.999817,116.333061 500.999908,173.999786 
	C439.500000,174.000000 378.000000,174.000000 316.000000,174.000000 
M64.070702,44.021423 
	C60.705681,44.335445 57.340660,44.649467 53.372749,45.550526 
	C53.372749,57.973259 53.372749,70.395996 53.372749,82.818726 
	C53.593735,82.818214 53.814716,82.817703 54.035702,82.817200 
	C54.035702,70.223824 54.035702,57.630451 54.942928,45.038277 
	C58.284641,45.004860 61.626358,44.971443 65.908455,44.981441 
	C74.224701,44.981441 82.540947,44.981441 90.857193,44.981441 
	C90.853333,44.672878 90.849472,44.364311 90.845612,44.055748 
	C82.220680,44.055748 73.595749,44.055748 64.070702,44.021423 
M60.418041,25.404657 
	C53.042755,25.278961 45.667271,25.093119 38.292473,25.117163 
	C37.523731,25.119669 36.759045,26.365728 35.716839,27.657917 
	C35.479515,28.829330 35.242195,30.000746 35.004871,31.172159 
	C35.318604,31.338001 35.632336,31.503843 35.946068,31.669685 
	C36.739243,30.287218 37.532417,28.904749 38.325592,27.522280 
	C38.957287,27.749514 39.588985,27.976748 40.220680,28.203979 
	C40.669617,31.626680 41.118557,35.049381 41.552990,38.361481 
	C43.066521,36.727776 44.189648,34.391560 45.597683,34.204945 
	C49.938789,33.629585 54.411144,34.108074 58.785229,33.686546 
	C60.520962,33.519276 62.924759,32.463501 63.614548,31.099352 
	C64.645493,29.060532 64.408852,26.403053 60.418041,25.404657 
M295.494659,137.677780 
	C301.309113,137.409378 307.179993,137.548264 312.921326,136.752274 
	C318.139954,136.028748 323.259430,133.685440 325.041443,128.370407 
	C326.667969,123.519165 327.744385,118.108658 327.391846,113.061378 
	C326.926880,106.404182 322.390625,101.819466 315.589569,99.136681 
	C316.659607,98.393356 317.147430,98.034706 317.654297,97.705383 
	C324.122864,93.502716 327.697693,85.599693 326.374207,78.416382 
	C324.720001,69.438110 320.251099,63.970333 311.178741,62.985523 
	C299.313171,61.697510 287.297974,61.776405 275.345551,61.307995 
	C272.145782,61.182598 272.098053,63.528038 272.101318,65.774918 
	C272.133820,88.095673 272.226166,110.416512 272.177979,132.737045 
	C272.170380,136.253494 273.130463,137.932114 277.006744,137.754074 
	C282.825714,137.486786 288.665741,137.678589 295.494659,137.677780 
M252.637726,128.077240 
	C257.290192,119.667381 257.998260,110.474480 256.400513,101.402977 
	C252.773361,80.809372 234.506180,73.931602 217.858490,86.463974 
	C217.376480,86.826820 216.702744,86.934982 216.080368,87.176682 
	C214.794571,80.586731 214.229492,80.265495 207.052460,81.944237 
	C207.052460,86.205330 207.059967,90.496597 207.051193,94.787834 
	C207.011368,114.248772 206.979370,133.709763 206.911453,153.170609 
	C206.900635,156.269943 206.507614,159.059586 211.305984,158.993927 
	C216.139877,158.927811 215.597839,156.064240 215.525177,153.017975 
	C215.378540,146.870377 215.237320,140.722000 215.190094,134.573212 
	C215.181107,133.405273 215.616745,132.233932 215.902039,130.786102 
	C230.448593,141.949005 242.629578,141.108261 252.637726,128.077240 
M447.591461,101.157104 
	C450.175598,97.902542 453.231384,94.902977 455.177490,91.303436 
	C456.467590,88.917290 456.700562,85.588028 456.270813,82.859871 
	C456.133942,81.990913 452.354553,81.257896 450.226868,81.215469 
	C440.569946,81.022888 430.905487,81.211075 421.248535,81.019821 
	C417.730865,80.950150 416.082306,81.848969 416.101318,85.727280 
	C416.119995,89.537308 417.216888,91.362228 421.284302,90.881111 
	C423.418762,90.628632 425.609344,90.855988 427.774597,90.857346 
	C432.992096,90.860619 438.209595,90.858406 443.427094,90.858406 
	C443.568909,91.380409 443.710693,91.902420 443.852509,92.424423 
	C438.314362,99.426918 432.780457,106.432785 427.236603,113.430748 
	C423.314545,118.381531 419.172241,123.174217 415.511078,128.310379 
	C412.259644,132.871780 413.804321,137.506897 418.302582,137.555710 
	C430.125946,137.684021 441.952850,137.539368 453.774689,137.729782 
	C457.875244,137.795807 458.371918,135.436630 458.451477,132.317780 
	C458.536652,128.978073 456.711700,128.061279 453.705139,128.099655 
	C446.878265,128.186798 440.049194,128.134277 433.221313,128.089920 
	C431.649567,128.079712 430.079071,127.873726 426.903656,127.639465 
	C434.217377,118.296608 440.698242,110.017647 447.591461,101.157104 
M105.731033,133.110840 
	C105.627609,115.313988 105.498871,97.517220 105.433067,79.720230 
	C105.406342,72.492935 105.468422,72.516289 112.458008,72.583176 
	C115.780174,72.614960 119.103691,72.494545 122.426041,72.519127 
	C127.487022,72.556557 126.478508,68.870071 126.690910,65.811440 
	C126.930763,62.357590 125.540947,61.146751 122.030647,61.246300 
	C112.727539,61.510128 103.415108,61.448879 94.106316,61.506474 
	C89.947929,61.532200 85.786346,61.636864 81.631760,61.515709 
	C77.399323,61.392281 74.975761,62.293728 74.955811,67.514580 
	C74.934509,73.088165 78.628700,72.091797 81.631851,72.349762 
	C84.934998,72.633507 88.284912,72.545807 91.605469,72.406258 
	C95.047470,72.261620 96.364838,73.666031 96.193558,77.142349 
	C95.972870,81.621735 96.210510,86.121849 96.169548,90.612297 
	C96.042107,104.583023 95.853920,118.553223 95.746002,132.524063 
	C95.726540,135.042908 95.669037,137.838852 99.394676,137.767609 
	C102.162979,137.714676 105.888321,139.091370 105.731033,133.110840 
M395.466461,128.063141 
	C389.584564,128.063141 383.702637,128.063141 377.820740,128.063141 
	C377.656525,127.534409 377.492310,127.005669 377.328094,126.476936 
	C380.131073,122.632210 382.807281,118.686844 385.763214,114.963562 
	C392.070435,107.019051 398.749115,99.356377 404.756378,91.195999 
	C406.259918,89.153587 406.353821,85.572609 405.924683,82.885765 
	C405.778625,81.971344 402.044830,81.144241 399.937439,81.111542 
	C389.941986,80.956406 379.939789,81.223648 369.944977,81.051384 
	C366.151978,80.986008 364.740143,82.413170 365.179626,86.040413 
	C365.353210,87.473061 365.421661,88.918442 365.605713,91.196320 
	C374.750793,91.196320 383.607330,91.196320 393.910156,91.196320 
	C389.349976,97.179253 385.810638,101.951721 382.134247,106.616180 
	C376.572845,113.672218 370.662415,120.472481 365.459625,127.779663 
	C363.967834,129.874786 363.912628,133.406662 364.267120,136.141251 
	C364.368774,136.925308 368.206116,137.649277 370.338989,137.673996 
	C380.834351,137.795654 391.339172,137.441574 401.826813,137.740433 
	C406.577057,137.875809 407.331512,135.546738 407.469604,131.734802 
	C407.634735,127.175819 404.381226,128.366104 401.944611,128.186569 
	C400.119812,128.052124 398.281738,128.097870 395.466461,128.063141 
M164.590378,91.413246 
	C166.615356,90.938553 170.204559,90.782791 170.378296,89.930641 
	C170.948151,87.135773 171.110565,83.589828 169.760193,81.330154 
	C168.990417,80.042038 164.963333,80.456520 162.423264,80.567642 
	C161.042068,80.628067 159.562271,81.456268 158.372345,82.288895 
	C155.083206,84.590370 151.923111,87.076218 148.237152,89.845993 
	C148.023407,88.182076 147.669373,87.073410 147.782211,86.014496 
	C148.230133,81.811363 145.990097,81.056847 142.366989,81.022446 
	C138.332199,80.984116 138.381088,83.239388 138.395432,86.180351 
	C138.471085,101.677536 138.471115,117.175827 138.352570,132.672638 
	C138.326859,136.035843 138.903702,137.973557 142.947678,137.943253 
	C146.894669,137.913681 147.737961,136.095276 147.658096,132.681549 
	C147.494476,125.687592 147.331528,118.680748 147.572113,111.693115 
	C147.968689,100.174805 153.878326,92.939308 164.590378,91.413246 
M189.584457,134.833832 
	C189.584457,116.985603 189.584457,99.137375 189.584457,80.739502 
	C186.404663,80.937309 183.873871,81.094749 181.305222,81.254539 
	C181.128021,82.412842 180.947144,83.053986 180.943756,83.696068 
	C180.856308,100.296196 180.744171,116.896538 180.793549,133.496384 
	C180.797699,134.890915 182.018753,137.510132 182.486053,137.468063 
	C184.846481,137.255539 187.144516,136.349945 189.584457,134.833832 
M343.147247,108.499985 
	C343.125885,116.828003 343.211792,125.158379 343.028595,133.482834 
	C342.958588,136.664261 343.906952,138.025604 347.260498,137.911652 
	C350.496490,137.801682 352.081757,136.917267 352.033569,133.266846 
	C351.833588,118.114975 351.890686,102.959824 351.831604,87.805946 
	C351.802368,80.313354 351.412720,80.036034 343.145660,81.777893 
	C343.145660,90.268600 343.145660,98.884293 343.147247,108.499985 
M189.083542,63.178745 
	C187.292328,62.981091 185.282928,62.184402 183.765060,62.737244 
	C181.862778,63.430092 179.138504,65.109192 178.992813,66.582520 
	C178.799271,68.539627 180.225082,71.553497 181.900452,72.600105 
	C184.809906,74.417641 188.217285,74.107140 190.839218,71.120674 
	C193.504181,68.085213 192.203934,65.735352 189.083542,63.178745 
M350.256134,72.815819 
	C351.090332,72.314491 352.033295,71.932800 352.739441,71.290672 
	C355.485046,68.794098 354.713867,66.142410 352.525391,63.920177 
	C350.302307,61.662811 343.817169,62.310421 342.036224,64.815605 
	C340.022156,67.648567 340.752350,70.491768 343.402496,72.135864 
	C344.997711,73.125526 347.458588,72.719818 350.256134,72.815819 
M42.886826,44.378399 
	C41.882973,44.912868 40.482269,45.200397 39.962326,46.035976 
	C39.033749,47.528255 38.636646,49.351254 38.017334,51.035976 
	C37.495625,50.967583 36.973915,50.899189 36.452206,50.830795 
	C36.205612,47.555767 35.959023,44.280743 35.712429,41.005714 
	C35.028961,44.241577 34.006062,47.594292 34.554512,50.666489 
	C34.947594,52.868397 37.443584,54.694897 39.001373,56.688889 
	C40.302166,55.004395 42.107666,53.493347 42.762787,51.586967 
	C43.427109,49.653835 42.955032,47.330181 42.886826,44.378399 
M45.978092,51.523220 
	C45.978092,61.633156 45.978092,71.743095 45.978092,81.853027 
	C46.317883,81.849892 46.657673,81.846764 46.997463,81.843628 
	C46.997463,74.875984 46.997463,67.908348 46.997463,60.940708 
	C46.997463,53.998730 46.997463,47.056751 46.997463,40.114773 
	C46.659210,40.119144 46.320953,40.123512 45.982700,40.127884 
	C45.982700,43.597107 45.982700,47.066334 45.978092,51.523220 
z"/>
<path fill="#B74C19" opacity="1.000000" stroke="none" 
	d="
M294.995728,137.676468 
	C288.665741,137.678589 282.825714,137.486786 277.006744,137.754074 
	C273.130463,137.932114 272.170380,136.253494 272.177979,132.737045 
	C272.226166,110.416512 272.133820,88.095673 272.101318,65.774918 
	C272.098053,63.528038 272.145782,61.182598 275.345551,61.307995 
	C287.297974,61.776405 299.313171,61.697510 311.178741,62.985523 
	C320.251099,63.970333 324.720001,69.438110 326.374207,78.416382 
	C327.697693,85.599693 324.122864,93.502716 317.654297,97.705383 
	C317.147430,98.034706 316.659607,98.393356 315.589569,99.136681 
	C322.390625,101.819466 326.926880,106.404182 327.391846,113.061378 
	C327.744385,118.108658 326.667969,123.519165 325.041443,128.370407 
	C323.259430,133.685440 318.139954,136.028748 312.921326,136.752274 
	C307.179993,137.548264 301.309113,137.409378 294.995728,137.676468 
M281.286774,111.826729 
	C281.403656,115.802559 281.307495,119.803276 281.767395,123.739037 
	C281.905273,124.918945 283.580414,126.837585 284.575470,126.852959 
	C292.190613,126.970703 299.884766,127.301537 307.410583,126.385277 
	C315.026215,125.458084 317.801849,121.042267 317.174408,113.472565 
	C316.706207,107.823784 312.789642,104.128891 305.540802,103.430893 
	C300.278656,102.924202 294.938293,103.140900 289.633972,103.181557 
	C281.928955,103.240623 281.929382,103.296921 281.286774,111.826729 
M297.472687,72.676888 
	C295.645691,72.687584 293.818634,72.694771 291.991669,72.709564 
	C281.595642,72.793770 281.595642,72.794388 281.501312,83.368828 
	C281.398834,94.859093 281.401306,95.033531 292.760864,94.871132 
	C298.333038,94.791481 304.079590,94.627106 309.407043,93.216423 
	C314.595306,91.842598 316.426086,86.726074 315.367493,80.566986 
	C314.543945,75.775291 311.419952,73.121910 305.929443,72.754768 
	C303.448151,72.588844 300.948669,72.694298 297.472687,72.676888 
z"/>
<path fill="#B84E1B" opacity="1.000000" stroke="none" 
	d="
M252.453506,128.394012 
	C242.629578,141.108261 230.448593,141.949005 215.902039,130.786102 
	C215.616745,132.233932 215.181107,133.405273 215.190094,134.573212 
	C215.237320,140.722000 215.378540,146.870377 215.525177,153.017975 
	C215.597839,156.064240 216.139877,158.927811 211.305984,158.993927 
	C206.507614,159.059586 206.900635,156.269943 206.911453,153.170609 
	C206.979370,133.709763 207.011368,114.248772 207.051193,94.787834 
	C207.059967,90.496597 207.052460,86.205330 207.052460,81.944237 
	C214.229492,80.265495 214.794571,80.586731 216.080368,87.176682 
	C216.702744,86.934982 217.376480,86.826820 217.858490,86.463974 
	C234.506180,73.931602 252.773361,80.809372 256.400513,101.402977 
	C257.998260,110.474480 257.290192,119.667381 252.453506,128.394012 
M238.330383,127.245491 
	C240.740356,125.370743 243.712311,123.909309 245.453125,121.542404 
	C250.341599,114.895821 249.793030,102.752701 244.822296,96.213928 
	C238.343933,87.691940 222.097488,88.822113 217.673401,98.375412 
	C215.152740,103.818474 214.139252,109.671570 216.036880,115.789368 
	C219.289871,126.276733 226.892914,130.498016 238.330383,127.245491 
z"/>
<path fill="#B64F1E" opacity="1.000000" stroke="none" 
	d="
M447.385315,101.447891 
	C440.698242,110.017647 434.217377,118.296608 426.903656,127.639465 
	C430.079071,127.873726 431.649567,128.079712 433.221313,128.089920 
	C440.049194,128.134277 446.878265,128.186798 453.705139,128.099655 
	C456.711700,128.061279 458.536652,128.978073 458.451477,132.317780 
	C458.371918,135.436630 457.875244,137.795807 453.774689,137.729782 
	C441.952850,137.539368 430.125946,137.684021 418.302582,137.555710 
	C413.804321,137.506897 412.259644,132.871780 415.511078,128.310379 
	C419.172241,123.174217 423.314545,118.381531 427.236603,113.430748 
	C432.780457,106.432785 438.314362,99.426918 443.852509,92.424423 
	C443.710693,91.902420 443.568909,91.380409 443.427094,90.858406 
	C438.209595,90.858406 432.992096,90.860619 427.774597,90.857346 
	C425.609344,90.855988 423.418762,90.628632 421.284302,90.881111 
	C417.216888,91.362228 416.119995,89.537308 416.101318,85.727280 
	C416.082306,81.848969 417.730865,80.950150 421.248535,81.019821 
	C430.905487,81.211075 440.569946,81.022888 450.226868,81.215469 
	C452.354553,81.257896 456.133942,81.990913 456.270813,82.859871 
	C456.700562,85.588028 456.467590,88.917290 455.177490,91.303436 
	C453.231384,94.902977 450.175598,97.902542 447.385315,101.447891 
z"/>
<path fill="#B74D1C" opacity="1.000000" stroke="none" 
	d="
M105.726303,133.563721 
	C105.888321,139.091370 102.162979,137.714676 99.394676,137.767609 
	C95.669037,137.838852 95.726540,135.042908 95.746002,132.524063 
	C95.853920,118.553223 96.042107,104.583023 96.169548,90.612297 
	C96.210510,86.121849 95.972870,81.621735 96.193558,77.142349 
	C96.364838,73.666031 95.047470,72.261620 91.605469,72.406258 
	C88.284912,72.545807 84.934998,72.633507 81.631851,72.349762 
	C78.628700,72.091797 74.934509,73.088165 74.955811,67.514580 
	C74.975761,62.293728 77.399323,61.392281 81.631760,61.515709 
	C85.786346,61.636864 89.947929,61.532200 94.106316,61.506474 
	C103.415108,61.448879 112.727539,61.510128 122.030647,61.246300 
	C125.540947,61.146751 126.930763,62.357590 126.690910,65.811440 
	C126.478508,68.870071 127.487022,72.556557 122.426041,72.519127 
	C119.103691,72.494545 115.780174,72.614960 112.458008,72.583176 
	C105.468422,72.516289 105.406342,72.492935 105.433067,79.720230 
	C105.498871,97.517220 105.627609,115.313988 105.726303,133.563721 
z"/>
<path fill="#B45527" opacity="1.000000" stroke="none" 
	d="
M395.958008,128.063263 
	C398.281738,128.097870 400.119812,128.052124 401.944611,128.186569 
	C404.381226,128.366104 407.634735,127.175819 407.469604,131.734802 
	C407.331512,135.546738 406.577057,137.875809 401.826813,137.740433 
	C391.339172,137.441574 380.834351,137.795654 370.338989,137.673996 
	C368.206116,137.649277 364.368774,136.925308 364.267120,136.141251 
	C363.912628,133.406662 363.967834,129.874786 365.459625,127.779663 
	C370.662415,120.472481 376.572845,113.672218 382.134247,106.616180 
	C385.810638,101.951721 389.349976,97.179253 393.910156,91.196320 
	C383.607330,91.196320 374.750793,91.196320 365.605713,91.196320 
	C365.421661,88.918442 365.353210,87.473061 365.179626,86.040413 
	C364.740143,82.413170 366.151978,80.986008 369.944977,81.051384 
	C379.939789,81.223648 389.941986,80.956406 399.937439,81.111542 
	C402.044830,81.144241 405.778625,81.971344 405.924683,82.885765 
	C406.353821,85.572609 406.259918,89.153587 404.756378,91.195999 
	C398.749115,99.356377 392.070435,107.019051 385.763214,114.963562 
	C382.807281,118.686844 380.131073,122.632210 377.328094,126.476936 
	C377.492310,127.005669 377.656525,127.534409 377.820740,128.063141 
	C383.702637,128.063141 389.584564,128.063141 395.958008,128.063263 
M386.810638,107.036530 
	C388.439911,106.173759 390.069183,105.310989 391.698425,104.448219 
	C391.154968,103.712151 390.611481,102.976082 390.068024,102.240013 
	C388.369751,103.822563 386.671509,105.405113 384.366272,107.285431 
	C381.489685,111.476746 378.613098,115.668060 375.736511,119.859375 
	C376.320679,120.341011 376.904846,120.822655 377.488983,121.304298 
	C378.763153,119.944389 380.672333,118.786758 381.182953,117.183655 
	C382.346680,113.530197 388.159973,112.140251 386.810638,107.036530 
M401.674774,91.701355 
	C405.187775,85.603340 404.790649,83.103653 400.116180,83.021019 
	C390.506104,82.851135 380.888214,82.872932 371.281158,83.116219 
	C370.161438,83.144577 369.089630,85.066345 367.995575,86.110306 
	C369.159668,87.079193 370.287415,88.821838 371.494385,88.878601 
	C375.936127,89.087486 380.434509,88.359711 384.852905,88.714561 
	C388.536407,89.010384 393.545654,87.089417 394.894714,93.702461 
	C393.812592,95.117943 392.492584,96.418846 391.735413,97.990852 
	C391.262878,98.971855 391.639862,100.362030 391.635620,101.568588 
	C392.712036,101.144058 394.136169,101.017319 394.801361,100.240608 
	C397.027802,97.640900 398.983002,94.808868 401.674774,91.701355 
z"/>
<path fill="#B64C1B" opacity="1.000000" stroke="none" 
	d="
M164.145264,91.410172 
	C153.878326,92.939308 147.968689,100.174805 147.572113,111.693115 
	C147.331528,118.680748 147.494476,125.687592 147.658096,132.681549 
	C147.737961,136.095276 146.894669,137.913681 142.947678,137.943253 
	C138.903702,137.973557 138.326859,136.035843 138.352570,132.672638 
	C138.471115,117.175827 138.471085,101.677536 138.395432,86.180351 
	C138.381088,83.239388 138.332199,80.984116 142.366989,81.022446 
	C145.990097,81.056847 148.230133,81.811363 147.782211,86.014496 
	C147.669373,87.073410 148.023407,88.182076 148.237152,89.845993 
	C151.923111,87.076218 155.083206,84.590370 158.372345,82.288895 
	C159.562271,81.456268 161.042068,80.628067 162.423264,80.567642 
	C164.963333,80.456520 168.990417,80.042038 169.760193,81.330154 
	C171.110565,83.589828 170.948151,87.135773 170.378296,89.930641 
	C170.204559,90.782791 166.615356,90.938553 164.145264,91.410172 
z"/>
<path fill="#B65020" opacity="1.000000" stroke="none" 
	d="
M189.524445,135.260635 
	C187.144516,136.349945 184.846481,137.255539 182.486053,137.468063 
	C182.018753,137.510132 180.797699,134.890915 180.793549,133.496384 
	C180.744171,116.896538 180.856308,100.296196 180.943756,83.696068 
	C180.947144,83.053986 181.128021,82.412842 181.305222,81.254539 
	C183.873871,81.094749 186.404663,80.937309 189.584457,80.739502 
	C189.584457,99.137375 189.584457,116.985603 189.524445,135.260635 
z"/>
<path fill="#B85222" opacity="1.000000" stroke="none" 
	d="
M343.146454,107.999985 
	C343.145660,98.884293 343.145660,90.268600 343.145660,81.777893 
	C351.412720,80.036034 351.802368,80.313354 351.831604,87.805946 
	C351.890686,102.959824 351.833588,118.114975 352.033569,133.266846 
	C352.081757,136.917267 350.496490,137.801682 347.260498,137.911652 
	C343.906952,138.025604 342.958588,136.664261 343.028595,133.482834 
	C343.211792,125.158379 343.125885,116.828003 343.146454,107.999985 
z"/>
<path fill="#FAFDFC" opacity="1.000000" stroke="none" 
	d="
M61.008705,25.998728 
	C64.408852,26.403053 64.645493,29.060532 63.614548,31.099352 
	C62.924759,32.463501 60.520962,33.519276 58.785229,33.686546 
	C54.411144,34.108074 49.938789,33.629585 45.597683,34.204945 
	C44.189648,34.391560 43.066521,36.727776 41.552990,38.361481 
	C41.118557,35.049381 40.669617,31.626680 40.220680,28.203979 
	C39.588985,27.976748 38.957287,27.749514 38.325592,27.522280 
	C37.532417,28.904749 36.739243,30.287218 35.946068,31.669685 
	C35.632336,31.503843 35.318604,31.338001 35.004871,31.172159 
	C35.242195,30.000746 35.479515,28.829330 36.240082,27.177862 
	C44.845116,26.464781 52.926910,26.231754 61.008705,25.998728 
z"/>
<path fill="#B35122" opacity="1.000000" stroke="none" 
	d="
M189.417526,63.335358 
	C192.203934,65.735352 193.504181,68.085213 190.839218,71.120674 
	C188.217285,74.107140 184.809906,74.417641 181.900452,72.600105 
	C180.225082,71.553497 178.799271,68.539627 178.992813,66.582520 
	C179.138504,65.109192 181.862778,63.430092 183.765060,62.737244 
	C185.282928,62.184402 187.292328,62.981091 189.417526,63.335358 
z"/>
<path fill="#B65526" opacity="1.000000" stroke="none" 
	d="
M349.893311,72.878487 
	C347.458588,72.719818 344.997711,73.125526 343.402496,72.135864 
	C340.752350,70.491768 340.022156,67.648567 342.036224,64.815605 
	C343.817169,62.310421 350.302307,61.662811 352.525391,63.920177 
	C354.713867,66.142410 355.485046,68.794098 352.739441,71.290672 
	C352.033295,71.932800 351.090332,72.314491 349.893311,72.878487 
z"/>
<path fill="#FAFDFC" opacity="1.000000" stroke="none" 
	d="
M42.933750,44.777985 
	C42.955032,47.330181 43.427109,49.653835 42.762787,51.586967 
	C42.107666,53.493347 40.302166,55.004395 39.001373,56.688889 
	C37.443584,54.694897 34.947594,52.868397 34.554512,50.666489 
	C34.006062,47.594292 35.028961,44.241577 35.712429,41.005714 
	C35.959023,44.280743 36.205612,47.555767 36.452206,50.830795 
	C36.973915,50.899189 37.495625,50.967583 38.017334,51.035976 
	C38.636646,49.351254 39.033749,47.528255 39.962326,46.035976 
	C40.482269,45.200397 41.882973,44.912868 42.933750,44.777985 
z"/>
<path fill="#CFD5D6" opacity="1.000000" stroke="none" 
	d="
M45.980396,51.029388 
	C45.982700,47.066334 45.982700,43.597107 45.982700,40.127884 
	C46.320953,40.123512 46.659210,40.119144 46.997463,40.114773 
	C46.997463,47.056751 46.997463,53.998730 46.997463,60.940708 
	C46.997463,67.908348 46.997463,74.875984 46.997463,81.843628 
	C46.657673,81.846764 46.317883,81.849892 45.978092,81.853027 
	C45.978092,71.743095 45.978092,61.633156 45.980396,51.029388 
z"/>
<path fill="#D2D7D9" opacity="1.000000" stroke="none" 
	d="
M54.035702,45.037079 
	C54.035702,57.630451 54.035702,70.223824 54.035702,82.817200 
	C53.814716,82.817703 53.593735,82.818214 53.372749,82.818726 
	C53.372749,70.395996 53.372749,57.973259 53.688248,45.276585 
	C54.003746,45.002644 54.035702,45.037079 54.035702,45.037079 
z"/>
<path fill="#E2E4E5" opacity="1.000000" stroke="none" 
	d="
M64.970818,44.055748 
	C73.595749,44.055748 82.220680,44.055748 90.845612,44.055748 
	C90.849472,44.364311 90.853333,44.672878 90.857193,44.981441 
	C82.540947,44.981441 74.224701,44.981441 65.445328,44.739502 
	C64.982201,44.497559 64.970818,44.055748 64.970818,44.055748 
z"/>
<path fill="#EDEEEF" opacity="1.000000" stroke="none" 
	d="
M60.713371,25.701693 
	C52.926910,26.231754 44.845116,26.464781 36.377899,26.866308 
	C36.759045,26.365728 37.523731,25.119669 38.292473,25.117163 
	C45.667271,25.093119 53.042755,25.278961 60.713371,25.701693 
z"/>
<path fill="#D2D7D9" opacity="1.000000" stroke="none" 
	d="
M64.520760,44.038586 
	C64.970818,44.055748 64.982201,44.497559 64.975136,44.717789 
	C61.626358,44.971443 58.284641,45.004860 54.489315,45.037678 
	C54.035702,45.037079 54.003746,45.002644 53.989693,44.983070 
	C57.340660,44.649467 60.705681,44.335445 64.520760,44.038586 
z"/>
<path fill="#FAF8F7" opacity="1.000000" stroke="none" 
	d="
M281.294220,111.377258 
	C281.929382,103.296921 281.928955,103.240623 289.633972,103.181557 
	C294.938293,103.140900 300.278656,102.924202 305.540802,103.430893 
	C312.789642,104.128891 316.706207,107.823784 317.174408,113.472565 
	C317.801849,121.042267 315.026215,125.458084 307.410583,126.385277 
	C299.884766,127.301537 292.190613,126.970703 284.575470,126.852959 
	C283.580414,126.837585 281.905273,124.918945 281.767395,123.739037 
	C281.307495,119.803276 281.403656,115.802559 281.294220,111.377258 
z"/>
<path fill="#FAF8F8" opacity="1.000000" stroke="none" 
	d="
M297.965088,72.676758 
	C300.948669,72.694298 303.448151,72.588844 305.929443,72.754768 
	C311.419952,73.121910 314.543945,75.775291 315.367493,80.566986 
	C316.426086,86.726074 314.595306,91.842598 309.407043,93.216423 
	C304.079590,94.627106 298.333038,94.791481 292.760864,94.871132 
	C281.401306,95.033531 281.398834,94.859093 281.501312,83.368828 
	C281.595642,72.794388 281.595642,72.793770 291.991669,72.709564 
	C293.818634,72.694771 295.645691,72.687584 297.965088,72.676758 
z"/>
<path fill="#FBFAF9" opacity="1.000000" stroke="none" 
	d="
M237.920105,127.317947 
	C226.892914,130.498016 219.289871,126.276733 216.036880,115.789368 
	C214.139252,109.671570 215.152740,103.818474 217.673401,98.375412 
	C222.097488,88.822113 238.343933,87.691940 244.822296,96.213928 
	C249.793030,102.752701 250.341599,114.895821 245.453125,121.542404 
	C243.712311,123.909309 240.740356,125.370743 237.920105,127.317947 
z"/>
<path fill="#BB3E04" opacity="1.000000" stroke="none" 
	d="
M394.991455,92.999321 
	C393.545654,87.089417 388.536407,89.010384 384.852905,88.714561 
	C380.434509,88.359711 375.936127,89.087486 371.494385,88.878601 
	C370.287415,88.821838 369.159668,87.079193 367.995575,86.110313 
	C369.089630,85.066345 370.161438,83.144577 371.281158,83.116219 
	C380.888214,82.872932 390.506104,82.851135 400.116180,83.021019 
	C404.790649,83.103653 405.187775,85.603340 401.142242,91.608765 
	C399.389343,91.705261 398.169006,91.894356 396.757874,92.172440 
	C396.327545,92.430458 396.170746,92.656853 395.820496,92.957817 
	C395.360077,92.983109 395.175781,92.991211 394.991455,92.999321 
z"/>
<path fill="#BB3E04" opacity="1.000000" stroke="none" 
	d="
M386.055603,107.026230 
	C388.159973,112.140251 382.346680,113.530197 381.182953,117.183655 
	C380.672333,118.786758 378.763153,119.944389 377.488983,121.304298 
	C376.904846,120.822655 376.320679,120.341011 375.736511,119.859375 
	C378.613098,115.668060 381.489685,111.476746 384.940552,107.144714 
	C385.695099,107.011406 385.875336,107.018822 386.055603,107.026230 
z"/>
<path fill="#BA3F03" opacity="1.000000" stroke="none" 
	d="
M394.943085,93.350891 
	C395.175781,92.991211 395.360077,92.983109 395.999695,92.856796 
	C396.680542,92.566154 396.845062,92.347778 396.948639,92.083450 
	C398.169006,91.894356 399.389343,91.705261 400.825867,91.790993 
	C398.983002,94.808868 397.027802,97.640900 394.801361,100.240608 
	C394.136169,101.017319 392.712036,101.144058 391.635620,101.568588 
	C391.639862,100.362030 391.262878,98.971855 391.735413,97.990852 
	C392.492584,96.418846 393.812592,95.117943 394.943085,93.350891 
z"/>
<path fill="#BA3F03" opacity="1.000000" stroke="none" 
	d="
M386.433105,107.031380 
	C385.875336,107.018822 385.695099,107.011406 385.244019,106.995827 
	C386.671509,105.405113 388.369751,103.822563 390.068024,102.240013 
	C390.611481,102.976082 391.154968,103.712151 391.698425,104.448219 
	C390.069183,105.310989 388.439911,106.173759 386.433105,107.031380 
z"/>
<path fill="#B45527" opacity="1.000000" stroke="none" 
	d="
M396.757874,92.172440 
	C396.845062,92.347778 396.680542,92.566154 396.275879,92.839615 
	C396.170746,92.656853 396.327545,92.430458 396.757874,92.172440 
z"/>
</svg>